<svg width="296" height="298" viewBox="0 0 296 298" fill="none" xmlns="http://www.w3.org/2000/svg">
<g style="mix-blend-mode:luminosity">
<path fill-rule="evenodd" clip-rule="evenodd" d="M147.947 170.061C108.668 170.061 71.7055 167.955 43.9048 164.164C14.735 160.268 -0.00749207 155.108 -0.00749207 149C-0.00749207 142.893 14.735 137.838 43.9048 133.836C71.7055 130.151 108.668 128.044 147.947 128.044C187.226 128.044 224.189 130.151 251.989 133.836C281.159 137.838 296.007 142.893 296.007 149C296.007 155.108 281.159 160.268 251.989 164.164C224.189 167.955 187.226 170.061 147.947 170.061ZM147.947 130.256C108.773 130.256 71.9164 132.362 44.221 136.048C13.261 140.26 2.20403 145.525 2.20403 149C2.20403 152.581 13.261 157.741 44.221 161.953C71.9164 165.744 108.773 167.85 147.947 167.85C187.121 167.85 223.978 165.744 251.674 161.953C282.739 157.741 293.796 152.581 293.796 149C293.796 145.525 282.739 140.26 251.674 136.048C223.978 132.362 187.121 130.256 147.947 130.256Z" fill="url(#paint0_linear_36_21277)"/>
<path fill-rule="evenodd" clip-rule="evenodd" d="M46.7487 178.17C22.2124 178.17 9.36533 175.432 8.52289 170.061C7.68044 164.269 20.9489 157.319 47.9072 149.421C73.4965 141.945 108.037 134.784 144.999 129.203C181.961 123.621 217.028 120.357 243.776 119.936C271.893 119.514 286.53 122.252 287.373 128.044C288.215 133.836 275.052 140.786 248.094 148.579C222.399 156.056 187.964 163.322 150.896 168.903C113.934 174.484 78.8672 177.749 52.2248 178.17C50.3293 178.17 48.5038 178.17 46.7487 178.17ZM48.5391 151.633C11.6821 162.374 10.6287 168.587 10.8393 169.745C10.9446 170.798 13.6828 176.485 52.1194 175.853C78.7618 175.537 113.723 172.167 150.58 166.692C187.543 161.11 221.872 153.95 247.462 146.473C284.319 135.732 285.372 129.519 285.161 128.36C284.95 127.202 282.213 121.621 243.776 122.147C217.239 122.568 182.277 125.833 145.315 131.414C108.458 136.995 74.0231 144.156 48.5391 151.633Z" fill="url(#paint1_linear_36_21277)"/>
<path fill-rule="evenodd" clip-rule="evenodd" d="M30.6371 195.335C25.6877 195.335 21.8963 194.808 19.6848 193.755C18.4212 193.053 17.614 192.141 17.263 191.017C15.4728 185.647 27.1616 176.906 51.8031 165.112C75.2863 153.844 107.3 141.524 142.05 130.466C207.972 109.195 264.416 98.2428 276.21 104.351C277.544 105.053 278.386 105.93 278.737 106.983C280.422 112.459 268.839 121.2 244.092 132.994C220.609 144.156 188.595 156.477 153.95 167.639C100.244 184.91 52.8566 195.335 30.6371 195.335ZM265.469 104.877C257.255 104.877 244.935 106.457 229.665 109.405C205.129 114.249 174.274 122.463 142.682 132.573C108.142 143.63 76.2345 155.95 52.7513 167.113C19.0534 183.225 19.0532 189.332 19.3691 190.386C19.5095 190.877 19.9657 191.333 20.7379 191.754C25.8979 194.387 42.5365 193.229 66.3357 188.595C90.8719 183.857 121.727 175.643 153.213 165.533C187.859 154.371 219.766 142.155 243.144 130.993C276.947 114.881 276.947 108.773 276.631 107.72C276.421 107.229 275.964 106.773 275.262 106.351C273.367 105.404 269.997 104.877 265.469 104.877Z" fill="url(#paint2_linear_36_21277)"/>
<path fill-rule="evenodd" clip-rule="evenodd" d="M32.9532 214.816C31.2683 214.816 29.8642 214.641 28.741 214.29C27.3369 213.798 26.3895 213.061 25.898 212.078C23.2654 207.024 33.3746 196.493 55.8048 180.697C77.0766 165.849 106.668 148.368 139.102 131.625C200.6 99.8223 254.517 79.7089 267.153 83.8158C268.557 84.2371 269.541 84.9742 270.102 86.0273C272.63 91.082 262.626 101.613 240.196 117.303C218.818 132.257 189.333 149.737 156.898 166.376C100.665 195.44 50.7499 214.816 32.9532 214.816ZM57.0682 182.593C26.4241 204.075 27.3722 210.078 27.8987 211.025C28.1093 211.517 28.6359 211.903 29.4783 212.184C35.0595 213.869 51.2763 210.078 73.9171 201.548C97.295 192.807 126.465 179.644 155.845 164.48C188.174 147.737 217.66 130.361 238.932 115.513C269.576 94.0305 268.523 88.0281 268.102 87.0803C267.821 86.5889 267.294 86.2028 266.522 85.922C260.941 84.1318 244.723 88.0281 222.083 96.4525C198.599 105.193 169.535 118.461 140.05 133.626C107.826 150.369 78.34 167.745 57.0682 182.593Z" fill="url(#paint3_linear_36_21277)"/>
<path fill-rule="evenodd" clip-rule="evenodd" d="M39.2711 234.93C38.7797 234.93 38.3236 234.895 37.9024 234.824C36.3579 234.614 35.2696 234.017 34.6378 233.034C31.1627 228.401 39.587 215.975 59.7004 196.388C78.866 177.749 106.035 155.213 136.047 132.888C193.334 90.5554 244.618 61.2804 258.097 63.2812C259.571 63.4918 260.659 64.0534 261.361 64.9661C264.836 69.7048 256.412 82.0256 236.193 101.613C217.027 120.357 189.964 142.892 159.846 165.112C104.561 206.181 54.7511 234.93 39.2711 234.93ZM256.622 65.3873C249.883 65.3873 234.719 71.9163 214.395 83.4999C192.176 96.2419 164.796 114.46 137.416 134.679C107.404 156.898 80.3403 179.434 61.28 197.967C33.6898 224.82 35.691 230.823 36.4282 231.771C36.709 232.192 37.3054 232.473 38.2181 232.613C44.1152 233.455 59.9112 226.927 81.4989 214.606C103.824 201.864 131.203 183.646 158.478 163.322C188.49 141.102 215.553 118.672 234.614 100.033C262.204 73.1799 260.203 67.2828 259.571 66.3351C259.22 65.9138 258.623 65.633 257.781 65.4926C257.43 65.4224 257.044 65.3873 256.622 65.3873Z" fill="url(#paint4_linear_36_21277)"/>
<path fill-rule="evenodd" clip-rule="evenodd" d="M46.9591 255.254C45.4146 255.254 44.1861 254.832 43.2734 253.99C38.9559 249.672 45.906 235.561 63.7026 212.078C80.7622 189.753 105.404 162.058 133.205 134.152C185.963 81.183 234.719 42.7463 249.041 42.7463C250.585 42.7463 251.779 43.1676 252.621 44.01C256.939 48.3276 250.094 62.4385 232.192 86.0271C215.238 108.352 190.596 136.047 162.796 163.848C109.932 216.817 61.2807 255.254 46.9591 255.254ZM249.041 44.9578C242.723 44.9578 227.348 54.33 206.813 70.5471C185.647 87.2907 160.058 110.458 134.784 135.731C107.089 163.532 82.4468 191.122 65.4925 213.447C46.5375 238.405 42.431 249.988 44.853 252.41C45.2742 252.832 45.9763 253.042 46.9591 253.042C53.2775 253.042 68.6517 243.775 89.1864 227.558C110.353 210.815 135.943 187.647 161.216 162.269C188.911 134.468 213.553 106.878 230.402 84.6581C249.462 59.7006 253.569 48.117 251.042 45.5896C250.62 45.1684 249.954 44.9578 249.041 44.9578Z" fill="url(#paint5_linear_36_21277)"/>
<path fill-rule="evenodd" clip-rule="evenodd" d="M66.8619 263.573C65.8088 263.573 64.9313 263.292 64.2292 262.731C59.4905 259.255 64.0187 245.039 77.4979 220.292C90.3452 196.809 109.721 167.323 131.941 137.101C174.168 79.709 214.606 36.6389 228.085 34.6381C229.56 34.4274 230.788 34.6381 231.771 35.2699C236.404 38.745 231.982 53.0666 218.502 77.7082C205.55 101.191 186.279 130.782 164.059 160.9C121.831 218.292 81.2887 261.467 67.8095 263.468C67.4585 263.538 67.1427 263.573 66.8619 263.573ZM229.138 36.7442C228.928 36.7442 228.682 36.7793 228.401 36.8495C222.504 37.6919 209.341 48.6437 192.281 66.8617C174.695 85.6061 153.95 110.985 133.731 138.47C111.512 168.587 92.2406 197.967 79.4986 221.451C60.9648 255.149 64.6502 260.309 65.4926 260.94C65.984 261.291 66.6514 261.397 67.4938 261.256C73.391 260.309 86.6593 249.462 103.614 231.244C121.2 212.5 142.05 187.016 162.269 159.636C184.383 129.519 203.654 100.033 216.502 76.6551C234.93 42.8519 231.349 37.7972 230.402 37.0601C230.121 36.8495 229.7 36.7442 229.138 36.7442Z" fill="url(#paint6_linear_36_21277)"/>
<path fill-rule="evenodd" clip-rule="evenodd" d="M86.9758 271.892C86.2738 271.892 85.6768 271.752 85.1854 271.471C80.0254 268.839 82.1313 254.412 91.2929 228.612C100.033 203.97 113.934 172.589 130.678 140.049C162.375 78.3402 194.493 30.5313 207.235 26.4243C208.639 26.0031 209.832 26.0733 210.815 26.635C215.87 29.1623 213.764 43.5892 204.708 69.4945C195.967 94.0307 181.962 125.517 165.323 157.951C133.626 219.766 101.402 267.575 88.7657 271.576C88.1339 271.787 87.5374 271.892 86.9758 271.892ZM209.025 28.4252C208.674 28.4252 208.288 28.4954 207.867 28.6358C202.286 30.426 191.334 42.9574 177.855 63.0708C163.849 83.8161 147.842 111.617 132.678 141.102C116.04 173.537 102.034 204.813 93.399 229.349C80.8677 264.626 85.1853 268.944 86.133 269.47C86.6245 269.751 87.2566 269.751 88.0289 269.47C93.6101 267.68 104.561 255.149 118.146 235.035C132.152 214.185 148.159 186.489 163.323 157.004C179.961 124.569 193.861 93.1883 202.496 68.7573C215.027 33.3745 210.815 29.057 209.762 28.5305C209.551 28.4603 209.306 28.4252 209.025 28.4252Z" fill="url(#paint7_linear_36_21277)"/>
<path fill-rule="evenodd" clip-rule="evenodd" d="M107.194 280.317C106.843 280.317 106.457 280.281 106.035 280.211C100.665 278.421 100.349 263.889 105.088 236.825C109.721 211.131 118.251 177.854 129.413 143.103C150.58 76.8656 174.484 24.4233 186.279 18.3156C187.613 17.6837 188.806 17.5433 189.859 17.8943C195.335 19.5792 195.651 34.2167 190.807 61.1751C186.278 86.8697 177.643 120.252 166.586 155.003C145.42 221.135 121.515 273.577 109.721 279.685C108.808 280.106 107.966 280.317 107.194 280.317ZM107.299 237.246C100.77 274.209 105.72 277.684 106.773 278.105C107.264 278.246 107.896 278.105 108.668 277.684C113.828 275.051 122.569 260.835 132.678 238.721C142.998 215.975 154.266 185.963 164.375 154.371C175.538 119.62 184.067 86.4485 188.596 60.8591C195.125 23.8968 190.28 20.3164 189.227 20.0005C188.736 19.8601 188.104 19.9654 187.332 20.3164C182.172 23.0543 173.326 37.2706 163.322 59.2796C152.897 82.1309 141.629 112.143 131.52 143.735C120.462 178.486 111.827 211.657 107.299 237.246Z" fill="url(#paint8_linear_36_21277)"/>
<path fill-rule="evenodd" clip-rule="evenodd" d="M127.623 288.951C127.412 288.951 127.202 288.916 126.992 288.846C121.305 288.004 118.567 273.261 118.988 245.144C119.409 218.291 122.674 183.119 128.255 146.051C133.731 108.984 140.892 74.3381 148.368 48.6435C156.266 21.5799 163.217 8.31132 168.903 9.25907C174.695 10.1015 177.433 24.8443 177.012 52.961C176.591 79.7087 173.326 114.881 167.745 152.054C162.163 189.122 155.003 223.662 147.526 249.462C139.944 275.683 133.204 288.951 127.623 288.951ZM168.377 11.3652C166.902 11.3652 160.795 13.8925 150.58 49.2753C143.103 74.8646 135.942 109.405 130.466 146.367C124.885 183.435 121.621 218.502 121.2 245.144C120.673 283.686 126.254 286.529 127.413 286.635C128.466 286.845 134.679 285.792 145.42 248.83C152.792 223.135 159.952 188.7 165.533 151.633C171.114 114.67 174.379 79.6034 174.695 52.961C175.327 14.4191 169.746 11.5758 168.587 11.4705C168.517 11.4003 168.447 11.3652 168.377 11.3652Z" fill="url(#paint9_linear_36_21277)"/>
<path fill-rule="evenodd" clip-rule="evenodd" d="M147.947 297.481C141.84 297.481 136.785 282.633 132.888 253.358C129.097 225.452 126.992 188.49 126.992 149C126.992 109.616 129.097 72.548 132.888 44.642C136.785 15.3669 141.84 0.518799 147.947 0.518799C154.055 0.518799 159.215 15.3669 163.111 44.642C166.902 72.548 168.903 109.616 168.903 149C168.903 188.49 166.902 225.452 163.111 253.358C159.215 282.633 154.055 297.481 147.947 297.481ZM147.947 2.83553C144.472 2.83553 139.207 13.8926 135.1 44.9579C131.309 72.7586 129.308 109.721 129.308 149C129.308 188.384 131.309 225.347 135.1 253.042C139.207 284.213 144.472 295.27 147.947 295.27C151.422 295.27 156.688 284.213 160.9 253.042C164.585 225.347 166.692 188.384 166.692 149C166.692 109.721 164.585 72.7586 160.9 44.9579C156.688 13.8926 151.422 2.83553 147.947 2.83553Z" fill="url(#paint10_linear_36_21277)"/>
<path fill-rule="evenodd" clip-rule="evenodd" d="M168.377 288.951C162.69 288.951 155.95 275.683 148.368 249.462C140.892 223.662 133.731 189.122 128.255 152.054C122.674 114.881 119.409 79.7087 118.988 52.961C118.567 24.8443 121.305 10.1015 126.992 9.25907C132.783 8.31132 139.734 21.5799 147.526 48.6435C155.003 74.3381 162.163 108.984 167.745 146.051C173.326 183.119 176.591 218.291 177.012 245.144C177.433 273.261 174.695 288.004 168.903 288.846C168.763 288.916 168.587 288.951 168.377 288.951ZM127.518 11.3652C127.448 11.3652 127.413 11.4003 127.413 11.4705C126.254 11.5758 120.673 14.4191 121.2 52.961C121.621 79.6034 124.885 114.67 130.466 151.633C135.942 188.7 143.103 223.135 150.58 248.83C161.321 285.792 167.429 286.845 168.587 286.635C169.746 286.529 175.327 283.686 174.695 245.144C174.379 218.502 171.114 183.435 165.533 146.367C159.952 109.405 152.792 74.8646 145.42 49.2753C135.1 13.8925 129.098 11.3652 127.518 11.3652Z" fill="url(#paint11_linear_36_21277)"/>
<path fill-rule="evenodd" clip-rule="evenodd" d="M188.7 280.317C187.928 280.317 187.121 280.106 186.279 279.685C174.484 273.577 150.58 221.135 129.413 155.003C118.251 120.252 109.721 86.8697 105.088 61.1751C100.349 34.2167 100.665 19.5792 106.035 17.8943C107.159 17.5433 108.387 17.6837 109.721 18.3156C121.515 24.4233 145.42 76.8656 166.586 143.103C177.643 177.854 186.278 211.131 190.807 236.825C195.651 263.889 195.335 278.421 189.859 280.211C189.508 280.281 189.122 280.317 188.7 280.317ZM107.194 19.8952C107.053 19.8952 106.913 19.9303 106.773 20.0005C105.72 20.3164 100.77 23.8968 107.299 60.8591C111.827 86.4485 120.462 119.62 131.52 154.371C141.629 185.963 152.897 215.975 163.322 238.721C173.326 260.835 182.172 275.051 187.332 277.684C188.104 278.105 188.736 278.246 189.227 278.105C190.28 277.684 195.125 274.209 188.596 237.246C184.067 211.657 175.538 178.486 164.375 143.735C154.266 112.143 142.998 82.1309 132.678 59.2796C122.569 37.2706 113.828 23.0543 108.668 20.3164C108.106 20.0356 107.615 19.8952 107.194 19.8952Z" fill="url(#paint12_linear_36_21277)"/>
<path fill-rule="evenodd" clip-rule="evenodd" d="M209.025 271.892C208.464 271.892 207.867 271.787 207.235 271.576C194.493 267.575 162.375 219.766 130.678 157.951C113.934 125.517 100.033 94.0307 91.2929 69.4945C82.1313 43.5892 80.0254 29.1623 85.1854 26.635C86.1683 26.0733 87.3616 26.0031 88.7657 26.4243C101.402 30.5313 133.626 78.3402 165.323 140.049C181.962 172.589 195.967 203.97 204.708 228.612C213.764 254.412 215.87 268.839 210.815 271.471C210.253 271.752 209.657 271.892 209.025 271.892ZM86.9758 28.4252C86.6248 28.4252 86.3437 28.4603 86.133 28.5305C85.1853 29.057 80.8677 33.3745 93.399 68.7573C102.034 93.1883 116.04 124.569 132.678 157.004C147.842 186.489 163.849 214.185 177.855 235.035C191.334 255.149 202.286 267.68 207.867 269.47C208.709 269.751 209.341 269.751 209.762 269.47C210.815 268.944 215.027 264.626 202.496 229.349C193.861 204.813 179.961 173.537 163.323 141.102C148.159 111.617 132.152 83.8161 118.146 63.0708C104.561 42.9574 93.6101 30.426 88.0289 28.6358C87.6076 28.4954 87.2566 28.4252 86.9758 28.4252Z" fill="url(#paint13_linear_36_21277)"/>
<path fill-rule="evenodd" clip-rule="evenodd" d="M229.138 263.573C228.787 263.573 228.436 263.538 228.085 263.468C214.606 261.467 174.168 218.292 131.941 160.9C109.721 130.782 90.3452 101.191 77.4979 77.7082C64.0187 53.0666 59.4905 38.745 64.2292 35.2699C65.1419 34.6381 66.3353 34.4274 67.8095 34.6381C81.2887 36.6389 121.831 79.709 164.059 137.101C186.279 167.323 205.55 196.809 218.502 220.292C231.982 245.039 236.404 259.255 231.771 262.731C231.069 263.292 230.191 263.573 229.138 263.573ZM66.8619 36.7442C66.3003 36.7442 65.8436 36.8495 65.4926 37.0601C64.6502 37.7972 60.9648 42.8519 79.4986 76.6551C92.2406 100.033 111.512 129.519 133.731 159.636C153.95 187.016 174.695 212.5 192.281 231.244C209.341 249.462 222.504 260.309 228.401 261.256C229.314 261.397 229.98 261.291 230.402 260.94C231.349 260.309 234.93 255.149 216.502 221.451C203.654 197.967 184.383 168.587 162.269 138.47C142.05 110.985 121.2 85.6061 103.614 66.8617C86.6593 48.6437 73.391 37.6919 67.4938 36.8495C67.2832 36.7793 67.0725 36.7442 66.8619 36.7442Z" fill="url(#paint14_linear_36_21277)"/>
<path fill-rule="evenodd" clip-rule="evenodd" d="M249.041 255.254C234.719 255.254 185.963 216.817 133.205 163.848C105.404 136.047 80.7622 108.352 63.7026 86.0271C45.906 62.4385 38.9559 48.3276 43.2734 44.01C44.1861 43.1676 45.4146 42.7463 46.9591 42.7463C61.2807 42.7463 109.932 81.183 162.796 134.152C190.596 162.058 215.238 189.753 232.192 212.078C250.094 235.561 256.939 249.672 252.621 253.99C251.779 254.832 250.585 255.254 249.041 255.254ZM134.784 162.269C160.058 187.647 185.647 210.815 206.813 227.558C227.348 243.775 242.723 253.042 249.041 253.042C249.954 253.042 250.62 252.832 251.042 252.41C253.569 249.988 249.462 238.405 230.402 213.447C213.553 191.122 188.911 163.532 161.216 135.731C135.943 110.458 110.353 87.2907 89.1864 70.5471C68.6517 54.33 53.2775 44.9578 46.9591 44.9578C45.9763 44.9578 45.2742 45.1684 44.853 45.5896C42.431 48.117 46.5375 59.7006 65.4925 84.6581C82.4468 106.878 107.089 134.468 134.784 162.269Z" fill="url(#paint15_linear_36_21277)"/>
<path fill-rule="evenodd" clip-rule="evenodd" d="M256.622 234.93C241.248 234.93 191.438 206.181 136.047 165.112C106.035 142.892 78.866 120.357 59.7004 101.613C39.587 82.0256 31.1627 69.7048 34.6378 64.9661C35.2696 64.0534 36.3579 63.4918 37.9024 63.2812C51.3815 61.2804 102.665 90.5554 159.846 132.888C189.964 155.213 217.027 177.749 236.193 196.388C256.412 215.975 264.836 228.401 261.361 233.034C260.659 234.017 259.571 234.614 258.097 234.824C257.676 234.895 257.184 234.93 256.622 234.93ZM39.3765 65.3873C38.9553 65.3873 38.5691 65.4224 38.2181 65.4926C37.3054 65.633 36.709 65.9138 36.4282 66.3351C35.691 67.2828 33.6898 73.1799 61.28 100.033C80.3403 118.672 107.404 141.102 137.416 163.322C164.796 183.646 192.176 201.864 214.395 214.606C234.719 226.189 249.883 232.613 256.622 232.613C257.044 232.613 257.43 232.613 257.781 232.613C258.623 232.473 259.22 232.192 259.571 231.771C260.203 230.823 262.204 224.82 234.614 197.967C215.553 179.434 188.49 156.898 158.478 134.679C131.203 114.46 103.824 96.2419 81.4989 83.4999C61.2802 71.9163 46.0108 65.3873 39.3765 65.3873Z" fill="url(#paint16_linear_36_21277)"/>
<path fill-rule="evenodd" clip-rule="evenodd" d="M263.047 214.816C245.145 214.816 195.335 195.44 139.102 166.376C106.668 149.737 77.0766 132.257 55.8048 117.303C33.3746 101.613 23.2654 91.082 25.898 86.0273C26.3895 84.9742 27.3369 84.2371 28.741 83.8158C41.483 79.7089 95.2945 99.8223 156.898 131.625C189.333 148.368 218.818 165.849 240.196 180.697C262.626 196.493 272.63 207.024 270.102 212.078C269.541 213.061 268.557 213.798 267.153 214.29C266.1 214.641 264.731 214.816 263.047 214.816ZM140.05 164.48C169.535 179.644 198.599 192.807 222.083 201.548C244.723 210.078 260.941 213.869 266.522 212.184C267.294 211.903 267.821 211.517 268.102 211.025C268.523 210.078 269.576 204.075 238.932 182.593C217.66 167.745 188.174 150.369 155.845 133.626C126.465 118.461 97.295 105.193 73.9171 96.4525C51.2763 88.0281 35.0595 84.1318 29.4783 85.922C28.6359 86.2028 28.1093 86.5889 27.8987 87.0803C27.3722 88.0281 26.4241 94.0305 57.0682 115.513C78.34 130.361 107.826 147.737 140.05 164.48Z" fill="url(#paint17_linear_36_21277)"/>
<path fill-rule="evenodd" clip-rule="evenodd" d="M265.258 195.335C243.144 195.335 195.756 184.91 142.05 167.639C107.3 156.477 75.2863 144.156 51.8031 132.994C27.1616 121.2 15.4728 112.459 17.263 106.983C17.614 105.93 18.4212 105.053 19.6848 104.351C31.5844 98.2428 88.0284 109.195 153.95 130.466C188.595 141.524 220.609 153.844 244.092 165.112C268.839 176.906 280.422 185.647 278.737 191.017C278.386 192.141 277.544 193.053 276.21 193.755C273.999 194.808 270.313 195.335 265.258 195.335ZM30.5317 104.877C25.8982 104.877 22.6334 105.404 20.7379 106.351C19.9657 106.773 19.5095 107.229 19.3691 107.72C19.0532 108.773 19.0534 114.881 52.7513 130.993C76.2345 142.155 108.142 154.371 142.682 165.533C174.274 175.643 205.129 183.857 229.665 188.595C253.464 193.229 269.997 194.387 275.262 191.754C275.964 191.333 276.421 190.877 276.631 190.386C276.947 189.332 276.947 183.225 243.144 167.113C219.766 155.95 187.859 143.63 153.213 132.573C121.727 122.463 90.8719 114.249 66.3357 109.405C51.0663 106.457 38.7455 104.877 30.5317 104.877Z" fill="url(#paint18_linear_36_21277)"/>
<path fill-rule="evenodd" clip-rule="evenodd" d="M249.252 178.17C247.497 178.17 245.672 178.17 243.776 178.17C217.028 177.749 181.961 174.484 144.999 168.903C108.037 163.322 73.4965 156.056 47.9072 148.579C20.9489 140.786 7.68044 133.836 8.52289 128.044C9.47064 122.252 24.1082 119.514 52.2248 119.936C78.8672 120.357 113.934 123.621 150.896 129.203C187.964 134.784 222.399 141.945 248.094 149.421C275.052 157.319 288.215 164.269 287.373 170.061C286.53 175.432 273.788 178.17 249.252 178.17ZM145.315 166.692C182.277 172.167 217.239 175.537 243.776 175.853C282.213 176.485 284.95 170.798 285.161 169.745C285.372 168.587 284.319 162.374 247.462 151.633C221.872 144.156 187.543 136.995 150.58 131.414C113.723 125.833 78.7618 122.568 52.1194 122.147C13.7881 121.621 10.9446 127.202 10.8393 128.36C10.6287 129.519 11.6821 135.732 48.5391 146.473C74.0231 153.95 108.458 161.11 145.315 166.692Z" fill="url(#paint19_linear_36_21277)"/>
<path fill-rule="evenodd" clip-rule="evenodd" d="M147.947 170.061C108.668 170.061 71.7055 167.955 43.9048 164.164C14.735 160.268 -0.00749207 155.108 -0.00749207 149C-0.00749207 142.893 14.735 137.838 43.9048 133.836C71.7055 130.151 108.668 128.044 147.947 128.044C187.226 128.044 224.189 130.151 251.989 133.836C281.159 137.838 296.007 142.893 296.007 149C296.007 155.108 281.159 160.268 251.989 164.164C224.189 167.955 187.226 170.061 147.947 170.061ZM147.947 130.256C108.773 130.256 71.9164 132.362 44.221 136.048C13.261 140.26 2.20403 145.525 2.20403 149C2.20403 152.581 13.261 157.741 44.221 161.953C71.9164 165.744 108.773 167.85 147.947 167.85C187.121 167.85 223.978 165.744 251.674 161.953C282.739 157.741 293.796 152.581 293.796 149C293.796 145.525 282.739 140.26 251.674 136.048C223.978 132.362 187.121 130.256 147.947 130.256Z" fill="url(#paint20_linear_36_21277)"/>
</g>
<defs>
<linearGradient id="paint0_linear_36_21277" x1="1.44191e+06" y1="10141.6" x2="1.52513e+06" y2="10141.6" gradientUnits="userSpaceOnUse">
<stop stop-color="#5EDDC9"/>
<stop offset="1" stop-color="#00B1FB"/>
</linearGradient>
<linearGradient id="paint1_linear_36_21277" x1="1.3606e+06" y1="13559.2" x2="1.43447e+06" y2="13559.2" gradientUnits="userSpaceOnUse">
<stop stop-color="#5EDDC9"/>
<stop offset="1" stop-color="#00B1FB"/>
</linearGradient>
<linearGradient id="paint2_linear_36_21277" x1="1.2796e+06" y1="19965.7" x2="1.3447e+06" y2="19965.7" gradientUnits="userSpaceOnUse">
<stop stop-color="#5EDDC9"/>
<stop offset="1" stop-color="#00B1FB"/>
</linearGradient>
<linearGradient id="paint3_linear_36_21277" x1="1.19911e+06" y1="25843" x2="1.2561e+06" y2="25843" gradientUnits="userSpaceOnUse">
<stop stop-color="#5EDDC9"/>
<stop offset="1" stop-color="#00B1FB"/>
</linearGradient>
<linearGradient id="paint4_linear_36_21277" x1="1.1192e+06" y1="30425.3" x2="1.16868e+06" y2="30425.3" gradientUnits="userSpaceOnUse">
<stop stop-color="#5EDDC9"/>
<stop offset="1" stop-color="#00B1FB"/>
</linearGradient>
<linearGradient id="paint5_linear_36_21277" x1="1.0402e+06" y1="33496.5" x2="1.08281e+06" y2="33496.5" gradientUnits="userSpaceOnUse">
<stop stop-color="#5EDDC9"/>
<stop offset="1" stop-color="#00B1FB"/>
</linearGradient>
<linearGradient id="paint6_linear_36_21277" x1="843765" y1="34302.5" x2="871579" y2="34302.5" gradientUnits="userSpaceOnUse">
<stop stop-color="#5EDDC9"/>
<stop offset="1" stop-color="#00B1FB"/>
</linearGradient>
<linearGradient id="paint7_linear_36_21277" x1="648758" y1="34834.8" x2="665073" y2="34834.8" gradientUnits="userSpaceOnUse">
<stop stop-color="#5EDDC9"/>
<stop offset="1" stop-color="#00B1FB"/>
</linearGradient>
<linearGradient id="paint8_linear_36_21277" x1="459271" y1="35115.4" x2="467387" y2="35115.4" gradientUnits="userSpaceOnUse">
<stop stop-color="#5EDDC9"/>
<stop offset="1" stop-color="#00B1FB"/>
</linearGradient>
<linearGradient id="paint9_linear_36_21277" x1="289630" y1="35131.1" x2="292835" y2="35131.1" gradientUnits="userSpaceOnUse">
<stop stop-color="#5EDDC9"/>
<stop offset="1" stop-color="#00B1FB"/>
</linearGradient>
<linearGradient id="paint10_linear_36_21277" x1="209169" y1="34832.2" x2="210836" y2="34832.2" gradientUnits="userSpaceOnUse">
<stop stop-color="#5EDDC9"/>
<stop offset="1" stop-color="#00B1FB"/>
</linearGradient>
<linearGradient id="paint11_linear_36_21277" x1="289630" y1="35131.2" x2="292835" y2="35131.2" gradientUnits="userSpaceOnUse">
<stop stop-color="#5EDDC9"/>
<stop offset="1" stop-color="#00B1FB"/>
</linearGradient>
<linearGradient id="paint12_linear_36_21277" x1="459271" y1="35115.4" x2="467387" y2="35115.4" gradientUnits="userSpaceOnUse">
<stop stop-color="#5EDDC9"/>
<stop offset="1" stop-color="#00B1FB"/>
</linearGradient>
<linearGradient id="paint13_linear_36_21277" x1="648758" y1="34834.8" x2="665073" y2="34834.8" gradientUnits="userSpaceOnUse">
<stop stop-color="#5EDDC9"/>
<stop offset="1" stop-color="#00B1FB"/>
</linearGradient>
<linearGradient id="paint14_linear_36_21277" x1="843765" y1="34302.5" x2="871579" y2="34302.5" gradientUnits="userSpaceOnUse">
<stop stop-color="#5EDDC9"/>
<stop offset="1" stop-color="#00B1FB"/>
</linearGradient>
<linearGradient id="paint15_linear_36_21277" x1="1.0402e+06" y1="33496.5" x2="1.08281e+06" y2="33496.5" gradientUnits="userSpaceOnUse">
<stop stop-color="#5EDDC9"/>
<stop offset="1" stop-color="#00B1FB"/>
</linearGradient>
<linearGradient id="paint16_linear_36_21277" x1="1.1192e+06" y1="30425.3" x2="1.16868e+06" y2="30425.3" gradientUnits="userSpaceOnUse">
<stop stop-color="#5EDDC9"/>
<stop offset="1" stop-color="#00B1FB"/>
</linearGradient>
<linearGradient id="paint17_linear_36_21277" x1="1.19911e+06" y1="25843" x2="1.2561e+06" y2="25843" gradientUnits="userSpaceOnUse">
<stop stop-color="#5EDDC9"/>
<stop offset="1" stop-color="#00B1FB"/>
</linearGradient>
<linearGradient id="paint18_linear_36_21277" x1="1.2796e+06" y1="19965.7" x2="1.3447e+06" y2="19965.7" gradientUnits="userSpaceOnUse">
<stop stop-color="#5EDDC9"/>
<stop offset="1" stop-color="#00B1FB"/>
</linearGradient>
<linearGradient id="paint19_linear_36_21277" x1="1.3606e+06" y1="13559.2" x2="1.43447e+06" y2="13559.2" gradientUnits="userSpaceOnUse">
<stop stop-color="#5EDDC9"/>
<stop offset="1" stop-color="#00B1FB"/>
</linearGradient>
<linearGradient id="paint20_linear_36_21277" x1="1.44191e+06" y1="10141.6" x2="1.52513e+06" y2="10141.6" gradientUnits="userSpaceOnUse">
<stop stop-color="#5EDDC9"/>
<stop offset="1" stop-color="#00B1FB"/>
</linearGradient>
</defs>
</svg>
