<svg width="308" height="304" viewBox="0 0 308 304" fill="none" xmlns="http://www.w3.org/2000/svg">
<g style="mix-blend-mode:luminosity">
<path d="M27.1082 14.0789C27.1082 21.4731 21.0923 27.4888 13.6981 27.4888C6.42918 27.4888 0.413421 21.4731 0.41342 14.0789C0.41342 6.6847 6.42917 0.794422 13.6981 0.794421C21.0923 0.794421 27.1082 6.68469 27.1082 14.0789Z" fill="url(#paint0_linear_36_20649)"/>
<path d="M25.7296 49.9219C25.7296 56.5642 20.3405 61.9531 13.6982 61.9531C7.05597 61.9531 1.66684 56.5642 1.66684 49.9219C1.66684 43.2796 7.05597 37.8906 13.6982 37.8906C20.3405 37.8906 25.7296 43.2796 25.7296 49.9219Z" fill="url(#paint1_linear_36_20649)"/>
<path d="M24.4764 85.7655C24.4764 91.6558 19.7139 96.4182 13.6983 96.4182C7.80801 96.4182 3.04563 91.6558 3.04563 85.7655C3.04563 79.7499 7.80801 74.9876 13.6983 74.9876C19.7139 74.9876 24.4764 79.7499 24.4764 85.7655Z" fill="url(#paint2_linear_36_20649)"/>
<path d="M23.0974 121.483C23.0974 126.621 18.9616 130.883 13.6979 130.883C8.55958 130.883 4.42395 126.621 4.42395 121.483C4.42395 116.345 8.55957 112.084 13.6979 112.084C18.9616 112.084 23.0973 116.345 23.0974 121.483Z" fill="url(#paint3_linear_36_20649)"/>
<path d="M21.7188 157.327C21.7188 161.713 18.2098 165.347 13.6981 165.347C9.3117 165.347 5.67737 161.713 5.67737 157.327C5.67737 152.815 9.31169 149.306 13.6981 149.306C18.2098 149.306 21.7188 152.815 21.7188 157.327Z" fill="url(#paint4_linear_36_20649)"/>
<path d="M20.4657 193.044C20.4657 196.804 17.458 199.812 13.6982 199.812C10.0638 199.812 7.05622 196.804 7.05622 193.044C7.05622 189.41 10.0638 186.402 13.6982 186.402C17.458 186.402 20.4657 189.41 20.4657 193.044Z" fill="url(#paint5_linear_36_20649)"/>
<path d="M19.0871 228.887C19.0871 231.895 16.7062 234.276 13.6983 234.276C10.8158 234.276 8.43442 231.895 8.43442 228.887C8.43442 225.879 10.8158 223.498 13.6983 223.498C16.7062 223.498 19.0871 225.879 19.0871 228.887Z" fill="url(#paint6_linear_36_20649)"/>
<path d="M17.8334 264.73C17.8334 266.861 15.9538 268.74 13.6979 268.74C11.5674 268.74 9.68727 266.861 9.68727 264.73C9.68727 262.474 11.5674 260.594 13.6979 260.594C15.9538 260.594 17.8334 262.474 17.8334 264.73Z" fill="url(#paint7_linear_36_20649)"/>
<path d="M16.4555 300.448C16.4555 301.952 15.202 303.205 13.6981 303.205C12.1942 303.205 11.0661 301.952 11.0661 300.448C11.0661 298.944 12.1942 297.816 13.6981 297.816C15.202 297.816 16.4555 298.944 16.4555 300.448Z" fill="url(#paint8_linear_36_20649)"/>
<path d="M67.2126 14.0789C67.2126 21.4731 61.1967 27.4888 53.8025 27.4888C46.4083 27.4888 40.5179 21.4731 40.5179 14.0789C40.5179 6.6847 46.4083 0.794422 53.8025 0.794421C61.1967 0.794421 67.2126 6.68469 67.2126 14.0789Z" fill="url(#paint9_linear_36_20649)"/>
<path d="M65.834 49.9219C65.834 56.5642 60.4449 61.9531 53.8026 61.9531C47.1603 61.9531 41.7712 56.5642 41.7712 49.9219C41.7712 43.2796 47.1603 37.8906 53.8026 37.8906C60.4449 37.8906 65.834 43.2796 65.834 49.9219Z" fill="url(#paint10_linear_36_20649)"/>
<path d="M64.4549 85.7655C64.4549 91.6558 59.6925 96.4182 53.8022 96.4182C47.9119 96.4182 43.1495 91.6558 43.1495 85.7655C43.1495 79.7499 47.9119 74.9876 53.8022 74.9876C59.6925 74.9876 64.4549 79.7499 64.4549 85.7655Z" fill="url(#paint11_linear_36_20649)"/>
<path d="M63.2018 121.483C63.2018 126.621 58.9407 130.883 53.8024 130.883C48.664 130.883 44.4029 126.621 44.4029 121.483C44.4029 116.345 48.664 112.084 53.8024 112.084C58.9407 112.084 63.2018 116.345 63.2018 121.483Z" fill="url(#paint12_linear_36_20649)"/>
<path d="M61.8233 157.327C61.8233 161.713 58.3143 165.347 53.8026 165.347C49.4162 165.347 45.7819 161.713 45.7819 157.327C45.7819 152.815 49.4162 149.306 53.8026 149.306C58.3143 149.306 61.8233 152.815 61.8233 157.327Z" fill="url(#paint13_linear_36_20649)"/>
<path d="M60.5701 193.044C60.5701 196.804 57.5624 199.812 53.8026 199.812C50.1682 199.812 47.1606 196.804 47.1606 193.044C47.1606 189.41 50.1682 186.402 53.8026 186.402C57.5624 186.402 60.5701 189.41 60.5701 193.044Z" fill="url(#paint14_linear_36_20649)"/>
<path d="M59.191 228.887C59.191 231.895 56.81 234.276 53.8022 234.276C50.7944 234.276 48.4135 231.895 48.4135 228.887C48.4135 225.879 50.7944 223.498 53.8022 223.498C56.81 223.498 59.191 225.879 59.191 228.887Z" fill="url(#paint15_linear_36_20649)"/>
<path d="M57.813 264.73C57.813 266.861 56.0582 268.74 53.8024 268.74C51.5465 268.74 49.7917 266.861 49.7917 264.73C49.7917 262.474 51.5465 260.594 53.8024 260.594C56.0582 260.594 57.813 262.474 57.813 264.73Z" fill="url(#paint16_linear_36_20649)"/>
<path d="M56.5599 300.448C56.5599 301.952 55.3064 303.205 53.8025 303.205C52.2986 303.205 51.1705 301.952 51.1705 300.448C51.1705 298.944 52.2986 297.816 53.8025 297.816C55.3064 297.816 56.5599 298.944 56.5599 300.448Z" fill="url(#paint17_linear_36_20649)"/>
<path d="M107.191 14.0789C107.191 21.4731 101.301 27.4888 93.9064 27.4888C86.5122 27.4888 80.4963 21.4731 80.4963 14.0789C80.4963 6.6847 86.5122 0.794422 93.9064 0.794421C101.301 0.794421 107.191 6.68469 107.191 14.0789Z" fill="url(#paint18_linear_36_20649)"/>
<path d="M105.938 49.9219C105.938 56.5642 100.549 61.9531 93.9064 61.9531C87.2642 61.9531 81.875 56.5642 81.875 49.9219C81.875 43.2796 87.2642 37.8906 93.9064 37.8906C100.549 37.8906 105.938 43.2796 105.938 49.9219Z" fill="url(#paint19_linear_36_20649)"/>
<path d="M104.559 85.7655C104.559 91.6558 99.797 96.4182 93.9066 96.4182C88.0163 96.4182 83.1285 91.6558 83.1285 85.7655C83.1285 79.7499 88.0163 74.9876 93.9066 74.9876C99.7969 74.9876 104.559 79.7499 104.559 85.7655Z" fill="url(#paint20_linear_36_20649)"/>
<path d="M103.306 121.483C103.306 126.621 99.0451 130.883 93.9068 130.883C88.7684 130.883 84.5074 126.621 84.5074 121.483C84.5074 116.345 88.7684 112.084 93.9068 112.084C99.0451 112.084 103.306 116.345 103.306 121.483Z" fill="url(#paint21_linear_36_20649)"/>
<path d="M101.927 157.327C101.927 161.713 98.2927 165.347 93.9063 165.347C89.3946 165.347 85.8856 161.713 85.8856 157.327C85.8856 152.815 89.3946 149.306 93.9063 149.306C98.2927 149.306 101.927 152.815 101.927 157.327Z" fill="url(#paint22_linear_36_20649)"/>
<path d="M100.549 193.044C100.549 196.804 97.541 199.812 93.9066 199.812C90.1468 199.812 87.1391 196.804 87.1391 193.044C87.1391 189.41 90.1468 186.402 93.9066 186.402C97.541 186.402 100.549 189.41 100.549 193.044Z" fill="url(#paint23_linear_36_20649)"/>
<path d="M99.2954 228.887C99.2954 231.895 96.7891 234.276 93.9067 234.276C90.8988 234.276 88.5179 231.895 88.5179 228.887C88.5179 225.879 90.8988 223.498 93.9067 223.498C96.7891 223.498 99.2954 225.879 99.2954 228.887Z" fill="url(#paint24_linear_36_20649)"/>
<path d="M97.9175 264.73C97.9175 266.861 96.1627 268.74 93.9068 268.74C91.651 268.74 89.8961 266.861 89.8961 264.73C89.8961 262.474 91.651 260.594 93.9068 260.594C96.1627 260.594 97.9175 262.474 97.9175 264.73Z" fill="url(#paint25_linear_36_20649)"/>
<path d="M96.5383 300.448C96.5383 301.952 95.4103 303.205 93.9064 303.205C92.4025 303.205 91.149 301.952 91.149 300.448C91.149 298.944 92.4025 297.816 93.9064 297.816C95.4103 297.816 96.5383 298.944 96.5383 300.448Z" fill="url(#paint26_linear_36_20649)"/>
<path d="M147.295 14.0789C147.295 21.4731 141.28 27.4888 134.011 27.4888C126.617 27.4888 120.601 21.4731 120.601 14.0789C120.601 6.6847 126.617 0.794422 134.011 0.794421C141.28 0.794421 147.295 6.68469 147.295 14.0789Z" fill="url(#paint27_linear_36_20649)"/>
<path d="M145.917 49.9219C145.917 56.5642 140.653 61.9531 134.011 61.9531C127.369 61.9531 121.98 56.5642 121.98 49.9219C121.98 43.2796 127.369 37.8906 134.011 37.8906C140.653 37.8906 145.917 43.2796 145.917 49.9219Z" fill="url(#paint28_linear_36_20649)"/>
<path d="M144.664 85.7653C144.664 91.6556 139.901 96.418 134.011 96.418C127.995 96.418 123.233 91.6556 123.233 85.7653C123.233 79.7497 127.995 74.9873 134.011 74.9873C139.901 74.9873 144.664 79.7497 144.664 85.7653Z" fill="url(#paint29_linear_36_20649)"/>
<path d="M143.285 121.483C143.285 126.621 139.149 130.883 134.011 130.883C128.747 130.883 124.611 126.621 124.611 121.483C124.611 116.345 128.747 112.084 134.011 112.084C139.149 112.084 143.285 116.345 143.285 121.483Z" fill="url(#paint30_linear_36_20649)"/>
<path d="M142.031 157.327C142.031 161.713 138.397 165.347 134.011 165.347C129.499 165.347 125.865 161.713 125.865 157.327C125.865 152.815 129.499 149.306 134.011 149.306C138.397 149.306 142.031 152.815 142.031 157.327Z" fill="url(#paint31_linear_36_20649)"/>
<path d="M140.653 193.044C140.653 196.804 137.645 199.812 134.011 199.812C130.251 199.812 127.243 196.804 127.243 193.044C127.243 189.41 130.251 186.402 134.011 186.402C137.645 186.402 140.653 189.41 140.653 193.044Z" fill="url(#paint32_linear_36_20649)"/>
<path d="M139.275 228.887C139.275 231.895 136.894 234.276 134.011 234.276C131.003 234.276 128.622 231.895 128.622 228.887C128.622 225.879 131.003 223.498 134.011 223.498C136.894 223.498 139.275 225.879 139.275 228.887Z" fill="url(#paint33_linear_36_20649)"/>
<path d="M138.021 264.73C138.021 266.861 136.141 268.74 134.011 268.74C131.755 268.74 129.875 266.861 129.875 264.73C129.875 262.474 131.755 260.594 134.011 260.594C136.141 260.594 138.021 262.474 138.021 264.73Z" fill="url(#paint34_linear_36_20649)"/>
<path d="M136.643 300.448C136.643 301.952 135.389 303.205 134.011 303.205C132.507 303.205 131.253 301.952 131.253 300.448C131.253 298.944 132.507 297.816 134.011 297.816C135.389 297.816 136.643 298.944 136.643 300.448Z" fill="url(#paint35_linear_36_20649)"/>
<path d="M187.4 14.0789C187.4 21.4731 181.384 27.4888 173.99 27.4888C166.596 27.4888 160.705 21.4731 160.705 14.0789C160.705 6.6847 166.596 0.794422 173.99 0.794421C181.384 0.794421 187.4 6.68469 187.4 14.0789Z" fill="url(#paint36_linear_36_20649)"/>
<path d="M186.021 49.9219C186.021 56.5642 180.632 61.9531 173.989 61.9531C167.347 61.9531 161.958 56.5642 161.958 49.9219C161.958 43.2796 167.347 37.8906 173.989 37.8906C180.632 37.8906 186.021 43.2796 186.021 49.9219Z" fill="url(#paint37_linear_36_20649)"/>
<path d="M184.768 85.7653C184.768 91.6556 179.88 96.418 173.99 96.418C168.099 96.418 163.337 91.6556 163.337 85.7653C163.337 79.7497 168.099 74.9873 173.99 74.9873C179.88 74.9873 184.768 79.7497 184.768 85.7653Z" fill="url(#paint38_linear_36_20649)"/>
<path d="M183.389 121.483C183.389 126.621 179.128 130.883 173.99 130.883C168.851 130.883 164.716 126.621 164.716 121.483C164.716 116.345 168.851 112.084 173.99 112.084C179.128 112.084 183.389 116.345 183.389 121.483Z" fill="url(#paint39_linear_36_20649)"/>
<path d="M182.011 157.327C182.011 161.713 178.502 165.347 173.99 165.347C169.603 165.347 165.969 161.713 165.969 157.327C165.969 152.815 169.603 149.306 173.99 149.306C178.502 149.306 182.011 152.815 182.011 157.327Z" fill="url(#paint40_linear_36_20649)"/>
<path d="M180.757 193.044C180.757 196.804 177.749 199.812 173.989 199.812C170.355 199.812 167.347 196.804 167.347 193.044C167.347 189.41 170.355 186.402 173.989 186.402C177.749 186.402 180.757 189.41 180.757 193.044Z" fill="url(#paint41_linear_36_20649)"/>
<path d="M179.379 228.887C179.379 231.895 176.997 234.276 173.99 234.276C171.107 234.276 168.601 231.895 168.601 228.887C168.601 225.879 171.107 223.498 173.99 223.498C176.997 223.498 179.379 225.879 179.379 228.887Z" fill="url(#paint42_linear_36_20649)"/>
<path d="M178 264.73C178 266.861 176.246 268.74 173.99 268.74C171.734 268.74 169.98 266.861 169.98 264.73C169.98 262.474 171.734 260.594 173.99 260.594C176.246 260.594 178 262.474 178 264.73Z" fill="url(#paint43_linear_36_20649)"/>
<path d="M176.747 300.448C176.747 301.952 175.494 303.205 173.99 303.205C172.486 303.205 171.358 301.952 171.358 300.448C171.358 298.944 172.486 297.816 173.99 297.816C175.494 297.816 176.747 298.944 176.747 300.448Z" fill="url(#paint44_linear_36_20649)"/>
<path d="M227.504 14.0789C227.504 21.4731 221.488 27.4888 214.094 27.4888C206.699 27.4888 200.684 21.4731 200.684 14.0789C200.684 6.6847 206.699 0.794422 214.094 0.794421C221.488 0.794421 227.504 6.68469 227.504 14.0789Z" fill="url(#paint45_linear_36_20649)"/>
<path d="M226.125 49.9219C226.125 56.5642 220.736 61.9531 214.094 61.9531C207.452 61.9531 202.063 56.5642 202.063 49.9219C202.063 43.2796 207.452 37.8906 214.094 37.8906C220.736 37.8906 226.125 43.2796 226.125 49.9219Z" fill="url(#paint46_linear_36_20649)"/>
<path d="M224.747 85.7653C224.747 91.6556 219.984 96.418 214.094 96.418C208.204 96.418 203.441 91.6556 203.441 85.7653C203.441 79.7497 208.204 74.9873 214.094 74.9873C219.984 74.9873 224.747 79.7497 224.747 85.7653Z" fill="url(#paint47_linear_36_20649)"/>
<path d="M223.493 121.483C223.493 126.621 219.232 130.883 214.094 130.883C208.956 130.883 204.695 126.621 204.695 121.483C204.695 116.345 208.956 112.084 214.094 112.084C219.232 112.084 223.493 116.345 223.493 121.483Z" fill="url(#paint48_linear_36_20649)"/>
<path d="M222.115 157.327C222.115 161.713 218.48 165.347 214.094 165.347C209.708 165.347 206.073 161.713 206.073 157.327C206.073 152.815 209.708 149.306 214.094 149.306C218.48 149.306 222.115 152.815 222.115 157.327Z" fill="url(#paint49_linear_36_20649)"/>
<path d="M220.736 193.044C220.736 196.804 217.728 199.812 214.094 199.812C210.334 199.812 207.326 196.804 207.326 193.044C207.326 189.41 210.334 186.402 214.094 186.402C217.728 186.402 220.736 189.41 220.736 193.044Z" fill="url(#paint50_linear_36_20649)"/>
<path d="M219.483 228.887C219.483 231.895 217.101 234.276 214.094 234.276C211.086 234.276 208.705 231.895 208.705 228.887C208.705 225.879 211.086 223.498 214.094 223.498C217.101 223.498 219.483 225.879 219.483 228.887Z" fill="url(#paint51_linear_36_20649)"/>
<path d="M218.105 264.73C218.105 266.861 216.35 268.74 214.094 268.74C211.838 268.74 210.084 266.861 210.084 264.73C210.084 262.474 211.838 260.594 214.094 260.594C216.35 260.594 218.105 262.474 218.105 264.73Z" fill="url(#paint52_linear_36_20649)"/>
<path d="M216.851 300.448C216.851 301.952 215.598 303.205 214.094 303.205C212.59 303.205 211.337 301.952 211.337 300.448C211.337 298.944 212.59 297.816 214.094 297.816C215.598 297.816 216.851 298.944 216.851 300.448Z" fill="url(#paint53_linear_36_20649)"/>
<path d="M267.483 14.0789C267.483 21.4731 261.592 27.4888 254.198 27.4888C246.804 27.4888 240.788 21.4731 240.788 14.0789C240.788 6.6847 246.804 0.794422 254.198 0.794421C261.592 0.794421 267.483 6.68469 267.483 14.0789Z" fill="url(#paint54_linear_36_20649)"/>
<path d="M266.23 49.9219C266.23 56.5642 260.84 61.9531 254.198 61.9531C247.556 61.9531 242.167 56.5642 242.167 49.9219C242.167 43.2796 247.556 37.8906 254.198 37.8906C260.84 37.8906 266.23 43.2796 266.23 49.9219Z" fill="url(#paint55_linear_36_20649)"/>
<path d="M264.85 85.7653C264.85 91.6556 260.088 96.418 254.198 96.418C248.307 96.418 243.42 91.6556 243.42 85.7653C243.42 79.7497 248.307 74.9873 254.198 74.9873C260.088 74.9873 264.85 79.7497 264.85 85.7653Z" fill="url(#paint56_linear_36_20649)"/>
<path d="M263.473 121.483C263.473 126.621 259.337 130.883 254.198 130.883C248.935 130.883 244.799 126.621 244.799 121.483C244.799 116.345 248.935 112.084 254.198 112.084C259.337 112.084 263.473 116.345 263.473 121.483Z" fill="url(#paint57_linear_36_20649)"/>
<path d="M262.219 157.327C262.219 161.713 258.584 165.347 254.198 165.347C249.686 165.347 246.177 161.713 246.177 157.327C246.177 152.815 249.686 149.306 254.198 149.306C258.584 149.306 262.219 152.815 262.219 157.327Z" fill="url(#paint58_linear_36_20649)"/>
<path d="M260.84 193.044C260.84 196.804 257.832 199.812 254.198 199.812C250.438 199.812 247.43 196.804 247.43 193.044C247.43 189.41 250.438 186.402 254.198 186.402C257.832 186.402 260.84 189.41 260.84 193.044Z" fill="url(#paint59_linear_36_20649)"/>
<path d="M259.462 228.887C259.462 231.895 257.08 234.276 254.198 234.276C251.19 234.276 248.809 231.895 248.809 228.887C248.809 225.879 251.19 223.498 254.198 223.498C257.08 223.498 259.462 225.879 259.462 228.887Z" fill="url(#paint60_linear_36_20649)"/>
<path d="M258.209 264.73C258.209 266.861 256.328 268.74 254.198 268.74C251.942 268.74 250.062 266.861 250.062 264.73C250.062 262.474 251.942 260.594 254.198 260.594C256.328 260.594 258.209 262.474 258.209 264.73Z" fill="url(#paint61_linear_36_20649)"/>
<path d="M256.83 300.448C256.83 301.952 255.702 303.205 254.198 303.205C252.694 303.205 251.441 301.952 251.441 300.448C251.441 298.944 252.694 297.816 254.198 297.816C255.702 297.816 256.83 298.944 256.83 300.448Z" fill="url(#paint62_linear_36_20649)"/>
<path d="M307.587 14.0789C307.587 21.4731 301.571 27.4888 294.177 27.4888C286.783 27.4888 280.892 21.4731 280.892 14.0789C280.892 6.6847 286.783 0.794422 294.177 0.794421C301.571 0.794421 307.587 6.68469 307.587 14.0789Z" fill="url(#paint63_linear_36_20649)"/>
<path d="M306.208 49.9219C306.208 56.5642 300.819 61.9531 294.177 61.9531C287.535 61.9531 282.146 56.5642 282.146 49.9219C282.146 43.2796 287.535 37.8906 294.177 37.8906C300.819 37.8906 306.208 43.2796 306.208 49.9219Z" fill="url(#paint64_linear_36_20649)"/>
<path d="M304.955 85.7653C304.955 91.6556 300.067 96.418 294.177 96.418C288.287 96.418 283.524 91.6556 283.524 85.7653C283.524 79.7497 288.287 74.9873 294.177 74.9873C300.067 74.9873 304.955 79.7497 304.955 85.7653Z" fill="url(#paint65_linear_36_20649)"/>
<path d="M303.576 121.483C303.576 126.621 299.441 130.883 294.177 130.883C289.039 130.883 284.903 126.621 284.903 121.483C284.903 116.345 289.039 112.084 294.177 112.084C299.441 112.084 303.576 116.345 303.576 121.483Z" fill="url(#paint66_linear_36_20649)"/>
<path d="M302.198 157.327C302.198 161.713 298.689 165.347 294.177 165.347C289.791 165.347 286.156 161.713 286.156 157.327C286.156 152.815 289.791 149.306 294.177 149.306C298.689 149.306 302.198 152.815 302.198 157.327Z" fill="url(#paint67_linear_36_20649)"/>
<path d="M300.945 193.044C300.945 196.804 297.937 199.812 294.177 199.812C290.543 199.812 287.535 196.804 287.535 193.044C287.535 189.41 290.543 186.402 294.177 186.402C297.937 186.402 300.945 189.41 300.945 193.044Z" fill="url(#paint68_linear_36_20649)"/>
<path d="M299.566 228.887C299.566 231.895 297.185 234.276 294.177 234.276C291.295 234.276 288.913 231.895 288.913 228.887C288.913 225.879 291.295 223.498 294.177 223.498C297.185 223.498 299.566 225.879 299.566 228.887Z" fill="url(#paint69_linear_36_20649)"/>
<path d="M298.313 264.73C298.313 266.861 296.433 268.74 294.177 268.74C292.047 268.74 290.167 266.861 290.167 264.73C290.167 262.474 292.047 260.594 294.177 260.594C296.433 260.594 298.313 262.474 298.313 264.73Z" fill="url(#paint70_linear_36_20649)"/>
<path d="M296.934 300.448C296.934 301.952 295.681 303.205 294.177 303.205C292.673 303.205 291.545 301.952 291.545 300.448C291.545 298.944 292.673 297.816 294.177 297.816C295.681 297.816 296.934 298.944 296.934 300.448Z" fill="url(#paint71_linear_36_20649)"/>
</g>
<defs>
<linearGradient id="paint0_linear_36_20649" x1="-112947" y1="-18661.9" x2="-113516" y2="-18661.9" gradientUnits="userSpaceOnUse">
<stop stop-color="#5EDDC9"/>
<stop offset="1" stop-color="#00B1FB"/>
</linearGradient>
<linearGradient id="paint1_linear_36_20649" x1="-101713" y1="-16103" x2="-102175" y2="-16103" gradientUnits="userSpaceOnUse">
<stop stop-color="#5EDDC9"/>
<stop offset="1" stop-color="#00B1FB"/>
</linearGradient>
<linearGradient id="paint2_linear_36_20649" x1="-90466.8" y1="-13690.6" x2="-90832.6" y2="-13690.6" gradientUnits="userSpaceOnUse">
<stop stop-color="#5EDDC9"/>
<stop offset="1" stop-color="#00B1FB"/>
</linearGradient>
<linearGradient id="paint3_linear_36_20649" x1="-79226.7" y1="-11423.9" x2="-79505.8" y2="-11423.9" gradientUnits="userSpaceOnUse">
<stop stop-color="#5EDDC9"/>
<stop offset="1" stop-color="#00B1FB"/>
</linearGradient>
<linearGradient id="paint4_linear_36_20649" x1="-67970.7" y1="-9305.26" x2="-68176.3" y2="-9305.26" gradientUnits="userSpaceOnUse">
<stop stop-color="#5EDDC9"/>
<stop offset="1" stop-color="#00B1FB"/>
</linearGradient>
<linearGradient id="paint5_linear_36_20649" x1="-56718.1" y1="-7331.61" x2="-56861.5" y2="-7331.61" gradientUnits="userSpaceOnUse">
<stop stop-color="#5EDDC9"/>
<stop offset="1" stop-color="#00B1FB"/>
</linearGradient>
<linearGradient id="paint6_linear_36_20649" x1="-45452.7" y1="-5505.12" x2="-45543.9" y2="-5505.12" gradientUnits="userSpaceOnUse">
<stop stop-color="#5EDDC9"/>
<stop offset="1" stop-color="#00B1FB"/>
</linearGradient>
<linearGradient id="paint7_linear_36_20649" x1="-34184.4" y1="-3825.16" x2="-34236.8" y2="-3825.16" gradientUnits="userSpaceOnUse">
<stop stop-color="#5EDDC9"/>
<stop offset="1" stop-color="#00B1FB"/>
</linearGradient>
<linearGradient id="paint8_linear_36_20649" x1="-22912.8" y1="-2291.64" x2="-22936.1" y2="-2291.64" gradientUnits="userSpaceOnUse">
<stop stop-color="#5EDDC9"/>
<stop offset="1" stop-color="#00B1FB"/>
</linearGradient>
<linearGradient id="paint9_linear_36_20649" x1="-112052" y1="-18661.9" x2="-112621" y2="-18661.9" gradientUnits="userSpaceOnUse">
<stop stop-color="#5EDDC9"/>
<stop offset="1" stop-color="#00B1FB"/>
</linearGradient>
<linearGradient id="paint10_linear_36_20649" x1="-100904" y1="-16103" x2="-101366" y2="-16103" gradientUnits="userSpaceOnUse">
<stop stop-color="#5EDDC9"/>
<stop offset="1" stop-color="#00B1FB"/>
</linearGradient>
<linearGradient id="paint11_linear_36_20649" x1="-89749.1" y1="-13690.6" x2="-90112.8" y2="-13690.6" gradientUnits="userSpaceOnUse">
<stop stop-color="#5EDDC9"/>
<stop offset="1" stop-color="#00B1FB"/>
</linearGradient>
<linearGradient id="paint12_linear_36_20649" x1="-78582.6" y1="-11423.9" x2="-78863.5" y2="-11423.9" gradientUnits="userSpaceOnUse">
<stop stop-color="#5EDDC9"/>
<stop offset="1" stop-color="#00B1FB"/>
</linearGradient>
<linearGradient id="paint13_linear_36_20649" x1="-67416.6" y1="-9304.52" x2="-67622.2" y2="-9304.52" gradientUnits="userSpaceOnUse">
<stop stop-color="#5EDDC9"/>
<stop offset="1" stop-color="#00B1FB"/>
</linearGradient>
<linearGradient id="paint14_linear_36_20649" x1="-56243.9" y1="-7331.61" x2="-56387.3" y2="-7331.61" gradientUnits="userSpaceOnUse">
<stop stop-color="#5EDDC9"/>
<stop offset="1" stop-color="#00B1FB"/>
</linearGradient>
<linearGradient id="paint15_linear_36_20649" x1="-45066.9" y1="-5505.12" x2="-45159.3" y2="-5505.12" gradientUnits="userSpaceOnUse">
<stop stop-color="#5EDDC9"/>
<stop offset="1" stop-color="#00B1FB"/>
</linearGradient>
<linearGradient id="paint16_linear_36_20649" x1="-33888.8" y1="-3825.16" x2="-33940.5" y2="-3825.16" gradientUnits="userSpaceOnUse">
<stop stop-color="#5EDDC9"/>
<stop offset="1" stop-color="#00B1FB"/>
</linearGradient>
<linearGradient id="paint17_linear_36_20649" x1="-22699.6" y1="-2291.64" x2="-22722.8" y2="-2291.64" gradientUnits="userSpaceOnUse">
<stop stop-color="#5EDDC9"/>
<stop offset="1" stop-color="#00B1FB"/>
</linearGradient>
<linearGradient id="paint18_linear_36_20649" x1="-111159" y1="-18661.9" x2="-111729" y2="-18661.9" gradientUnits="userSpaceOnUse">
<stop stop-color="#5EDDC9"/>
<stop offset="1" stop-color="#00B1FB"/>
</linearGradient>
<linearGradient id="paint19_linear_36_20649" x1="-100094" y1="-16103" x2="-100556" y2="-16103" gradientUnits="userSpaceOnUse">
<stop stop-color="#5EDDC9"/>
<stop offset="1" stop-color="#00B1FB"/>
</linearGradient>
<linearGradient id="paint20_linear_36_20649" x1="-89025" y1="-13690.6" x2="-89390.8" y2="-13690.6" gradientUnits="userSpaceOnUse">
<stop stop-color="#5EDDC9"/>
<stop offset="1" stop-color="#00B1FB"/>
</linearGradient>
<linearGradient id="paint21_linear_36_20649" x1="-77948.5" y1="-11423.9" x2="-78229.4" y2="-11423.9" gradientUnits="userSpaceOnUse">
<stop stop-color="#5EDDC9"/>
<stop offset="1" stop-color="#00B1FB"/>
</linearGradient>
<linearGradient id="paint22_linear_36_20649" x1="-66862.5" y1="-9304.52" x2="-67068.1" y2="-9304.52" gradientUnits="userSpaceOnUse">
<stop stop-color="#5EDDC9"/>
<stop offset="1" stop-color="#00B1FB"/>
</linearGradient>
<linearGradient id="paint23_linear_36_20649" x1="-55781.6" y1="-7331.61" x2="-55925" y2="-7331.61" gradientUnits="userSpaceOnUse">
<stop stop-color="#5EDDC9"/>
<stop offset="1" stop-color="#00B1FB"/>
</linearGradient>
<linearGradient id="paint24_linear_36_20649" x1="-44683.3" y1="-5505.12" x2="-44775.6" y2="-5505.12" gradientUnits="userSpaceOnUse">
<stop stop-color="#5EDDC9"/>
<stop offset="1" stop-color="#00B1FB"/>
</linearGradient>
<linearGradient id="paint25_linear_36_20649" x1="-33590.3" y1="-3825.16" x2="-33642" y2="-3825.16" gradientUnits="userSpaceOnUse">
<stop stop-color="#5EDDC9"/>
<stop offset="1" stop-color="#00B1FB"/>
</linearGradient>
<linearGradient id="paint26_linear_36_20649" x1="-22486.9" y1="-2291.64" x2="-22510.1" y2="-2291.64" gradientUnits="userSpaceOnUse">
<stop stop-color="#5EDDC9"/>
<stop offset="1" stop-color="#00B1FB"/>
</linearGradient>
<linearGradient id="paint27_linear_36_20649" x1="-110264" y1="-18661.9" x2="-110834" y2="-18661.9" gradientUnits="userSpaceOnUse">
<stop stop-color="#5EDDC9"/>
<stop offset="1" stop-color="#00B1FB"/>
</linearGradient>
<linearGradient id="paint28_linear_36_20649" x1="-99285.9" y1="-16103" x2="-99745.4" y2="-16103" gradientUnits="userSpaceOnUse">
<stop stop-color="#5EDDC9"/>
<stop offset="1" stop-color="#00B1FB"/>
</linearGradient>
<linearGradient id="paint29_linear_36_20649" x1="-88300.4" y1="-13690.6" x2="-88666.2" y2="-13690.6" gradientUnits="userSpaceOnUse">
<stop stop-color="#5EDDC9"/>
<stop offset="1" stop-color="#00B1FB"/>
</linearGradient>
<linearGradient id="paint30_linear_36_20649" x1="-77310.4" y1="-11423.9" x2="-77589.5" y2="-11423.9" gradientUnits="userSpaceOnUse">
<stop stop-color="#5EDDC9"/>
<stop offset="1" stop-color="#00B1FB"/>
</linearGradient>
<linearGradient id="paint31_linear_36_20649" x1="-66308.9" y1="-9305.26" x2="-66516.1" y2="-9305.26" gradientUnits="userSpaceOnUse">
<stop stop-color="#5EDDC9"/>
<stop offset="1" stop-color="#00B1FB"/>
</linearGradient>
<linearGradient id="paint32_linear_36_20649" x1="-55307.4" y1="-7331.61" x2="-55450.8" y2="-7331.61" gradientUnits="userSpaceOnUse">
<stop stop-color="#5EDDC9"/>
<stop offset="1" stop-color="#00B1FB"/>
</linearGradient>
<linearGradient id="paint33_linear_36_20649" x1="-44302.7" y1="-5505.12" x2="-44394" y2="-5505.12" gradientUnits="userSpaceOnUse">
<stop stop-color="#5EDDC9"/>
<stop offset="1" stop-color="#00B1FB"/>
</linearGradient>
<linearGradient id="paint34_linear_36_20649" x1="-33289.8" y1="-3825.16" x2="-33342.3" y2="-3825.16" gradientUnits="userSpaceOnUse">
<stop stop-color="#5EDDC9"/>
<stop offset="1" stop-color="#00B1FB"/>
</linearGradient>
<linearGradient id="paint35_linear_36_20649" x1="-22273.6" y1="-2291.64" x2="-22296.9" y2="-2291.64" gradientUnits="userSpaceOnUse">
<stop stop-color="#5EDDC9"/>
<stop offset="1" stop-color="#00B1FB"/>
</linearGradient>
<linearGradient id="paint36_linear_36_20649" x1="-109369" y1="-18661.9" x2="-109938" y2="-18661.9" gradientUnits="userSpaceOnUse">
<stop stop-color="#5EDDC9"/>
<stop offset="1" stop-color="#00B1FB"/>
</linearGradient>
<linearGradient id="paint37_linear_36_20649" x1="-98476.6" y1="-16103" x2="-98938.4" y2="-16103" gradientUnits="userSpaceOnUse">
<stop stop-color="#5EDDC9"/>
<stop offset="1" stop-color="#00B1FB"/>
</linearGradient>
<linearGradient id="paint38_linear_36_20649" x1="-87575.8" y1="-13690.6" x2="-87941.6" y2="-13690.6" gradientUnits="userSpaceOnUse">
<stop stop-color="#5EDDC9"/>
<stop offset="1" stop-color="#00B1FB"/>
</linearGradient>
<linearGradient id="paint39_linear_36_20649" x1="-76671.1" y1="-11423.9" x2="-76950.1" y2="-11423.9" gradientUnits="userSpaceOnUse">
<stop stop-color="#5EDDC9"/>
<stop offset="1" stop-color="#00B1FB"/>
</linearGradient>
<linearGradient id="paint40_linear_36_20649" x1="-65755.8" y1="-9305.26" x2="-65961.5" y2="-9305.26" gradientUnits="userSpaceOnUse">
<stop stop-color="#5EDDC9"/>
<stop offset="1" stop-color="#00B1FB"/>
</linearGradient>
<linearGradient id="paint41_linear_36_20649" x1="-54838.6" y1="-7331.61" x2="-54981.9" y2="-7331.61" gradientUnits="userSpaceOnUse">
<stop stop-color="#5EDDC9"/>
<stop offset="1" stop-color="#00B1FB"/>
</linearGradient>
<linearGradient id="paint42_linear_36_20649" x1="-43919.5" y1="-5505.12" x2="-44011.9" y2="-5505.12" gradientUnits="userSpaceOnUse">
<stop stop-color="#5EDDC9"/>
<stop offset="1" stop-color="#00B1FB"/>
</linearGradient>
<linearGradient id="paint43_linear_36_20649" x1="-32991.6" y1="-3825.16" x2="-33043.3" y2="-3825.16" gradientUnits="userSpaceOnUse">
<stop stop-color="#5EDDC9"/>
<stop offset="1" stop-color="#00B1FB"/>
</linearGradient>
<linearGradient id="paint44_linear_36_20649" x1="-22060.4" y1="-2291.64" x2="-22083.6" y2="-2291.64" gradientUnits="userSpaceOnUse">
<stop stop-color="#5EDDC9"/>
<stop offset="1" stop-color="#00B1FB"/>
</linearGradient>
<linearGradient id="paint45_linear_36_20649" x1="-108474" y1="-18661.9" x2="-109045" y2="-18661.9" gradientUnits="userSpaceOnUse">
<stop stop-color="#5EDDC9"/>
<stop offset="1" stop-color="#00B1FB"/>
</linearGradient>
<linearGradient id="paint46_linear_36_20649" x1="-97665.5" y1="-16103" x2="-98127.3" y2="-16103" gradientUnits="userSpaceOnUse">
<stop stop-color="#5EDDC9"/>
<stop offset="1" stop-color="#00B1FB"/>
</linearGradient>
<linearGradient id="paint47_linear_36_20649" x1="-86852.8" y1="-13690.6" x2="-87216.5" y2="-13690.6" gradientUnits="userSpaceOnUse">
<stop stop-color="#5EDDC9"/>
<stop offset="1" stop-color="#00B1FB"/>
</linearGradient>
<linearGradient id="paint48_linear_36_20649" x1="-76032.2" y1="-11423.9" x2="-76313.1" y2="-11423.9" gradientUnits="userSpaceOnUse">
<stop stop-color="#5EDDC9"/>
<stop offset="1" stop-color="#00B1FB"/>
</linearGradient>
<linearGradient id="paint49_linear_36_20649" x1="-65203" y1="-9304.52" x2="-65408.6" y2="-9304.52" gradientUnits="userSpaceOnUse">
<stop stop-color="#5EDDC9"/>
<stop offset="1" stop-color="#00B1FB"/>
</linearGradient>
<linearGradient id="paint50_linear_36_20649" x1="-54372.2" y1="-7331.61" x2="-54515.6" y2="-7331.61" gradientUnits="userSpaceOnUse">
<stop stop-color="#5EDDC9"/>
<stop offset="1" stop-color="#00B1FB"/>
</linearGradient>
<linearGradient id="paint51_linear_36_20649" x1="-43534.6" y1="-5505.12" x2="-43626.9" y2="-5505.12" gradientUnits="userSpaceOnUse">
<stop stop-color="#5EDDC9"/>
<stop offset="1" stop-color="#00B1FB"/>
</linearGradient>
<linearGradient id="paint52_linear_36_20649" x1="-32694.4" y1="-3825.16" x2="-32746.1" y2="-3825.16" gradientUnits="userSpaceOnUse">
<stop stop-color="#5EDDC9"/>
<stop offset="1" stop-color="#00B1FB"/>
</linearGradient>
<linearGradient id="paint53_linear_36_20649" x1="-21846.3" y1="-2291.64" x2="-21870.2" y2="-2291.64" gradientUnits="userSpaceOnUse">
<stop stop-color="#5EDDC9"/>
<stop offset="1" stop-color="#00B1FB"/>
</linearGradient>
<linearGradient id="paint54_linear_36_20649" x1="-107581" y1="-18661.9" x2="-108150" y2="-18661.9" gradientUnits="userSpaceOnUse">
<stop stop-color="#5EDDC9"/>
<stop offset="1" stop-color="#00B1FB"/>
</linearGradient>
<linearGradient id="paint55_linear_36_20649" x1="-96855.6" y1="-16103" x2="-97317.5" y2="-16103" gradientUnits="userSpaceOnUse">
<stop stop-color="#5EDDC9"/>
<stop offset="1" stop-color="#00B1FB"/>
</linearGradient>
<linearGradient id="paint56_linear_36_20649" x1="-86122.4" y1="-13690.6" x2="-86488.2" y2="-13690.6" gradientUnits="userSpaceOnUse">
<stop stop-color="#5EDDC9"/>
<stop offset="1" stop-color="#00B1FB"/>
</linearGradient>
<linearGradient id="paint57_linear_36_20649" x1="-75390.3" y1="-11423.9" x2="-75669.4" y2="-11423.9" gradientUnits="userSpaceOnUse">
<stop stop-color="#5EDDC9"/>
<stop offset="1" stop-color="#00B1FB"/>
</linearGradient>
<linearGradient id="paint58_linear_36_20649" x1="-64648.8" y1="-9305.26" x2="-64854.5" y2="-9305.26" gradientUnits="userSpaceOnUse">
<stop stop-color="#5EDDC9"/>
<stop offset="1" stop-color="#00B1FB"/>
</linearGradient>
<linearGradient id="paint59_linear_36_20649" x1="-53903.3" y1="-7331.61" x2="-54046.7" y2="-7331.61" gradientUnits="userSpaceOnUse">
<stop stop-color="#5EDDC9"/>
<stop offset="1" stop-color="#00B1FB"/>
</linearGradient>
<linearGradient id="paint60_linear_36_20649" x1="-43152.7" y1="-5505.12" x2="-43244" y2="-5505.12" gradientUnits="userSpaceOnUse">
<stop stop-color="#5EDDC9"/>
<stop offset="1" stop-color="#00B1FB"/>
</linearGradient>
<linearGradient id="paint61_linear_36_20649" x1="-32395.2" y1="-3825.16" x2="-32447.7" y2="-3825.16" gradientUnits="userSpaceOnUse">
<stop stop-color="#5EDDC9"/>
<stop offset="1" stop-color="#00B1FB"/>
</linearGradient>
<linearGradient id="paint62_linear_36_20649" x1="-21633.2" y1="-2291.64" x2="-21656.4" y2="-2291.64" gradientUnits="userSpaceOnUse">
<stop stop-color="#5EDDC9"/>
<stop offset="1" stop-color="#00B1FB"/>
</linearGradient>
<linearGradient id="paint63_linear_36_20649" x1="-106686" y1="-18661.9" x2="-107255" y2="-18661.9" gradientUnits="userSpaceOnUse">
<stop stop-color="#5EDDC9"/>
<stop offset="1" stop-color="#00B1FB"/>
</linearGradient>
<linearGradient id="paint64_linear_36_20649" x1="-96048.2" y1="-16103" x2="-96510.1" y2="-16103" gradientUnits="userSpaceOnUse">
<stop stop-color="#5EDDC9"/>
<stop offset="1" stop-color="#00B1FB"/>
</linearGradient>
<linearGradient id="paint65_linear_36_20649" x1="-85402.9" y1="-13690.6" x2="-85768.7" y2="-13690.6" gradientUnits="userSpaceOnUse">
<stop stop-color="#5EDDC9"/>
<stop offset="1" stop-color="#00B1FB"/>
</linearGradient>
<linearGradient id="paint66_linear_36_20649" x1="-74756" y1="-11423.9" x2="-75035.1" y2="-11423.9" gradientUnits="userSpaceOnUse">
<stop stop-color="#5EDDC9"/>
<stop offset="1" stop-color="#00B1FB"/>
</linearGradient>
<linearGradient id="paint67_linear_36_20649" x1="-64096.3" y1="-9304.52" x2="-64301.9" y2="-9304.52" gradientUnits="userSpaceOnUse">
<stop stop-color="#5EDDC9"/>
<stop offset="1" stop-color="#00B1FB"/>
</linearGradient>
<linearGradient id="paint68_linear_36_20649" x1="-53434.5" y1="-7331.61" x2="-53577.8" y2="-7331.61" gradientUnits="userSpaceOnUse">
<stop stop-color="#5EDDC9"/>
<stop offset="1" stop-color="#00B1FB"/>
</linearGradient>
<linearGradient id="paint69_linear_36_20649" x1="-42769.1" y1="-5505.12" x2="-42860.3" y2="-5505.12" gradientUnits="userSpaceOnUse">
<stop stop-color="#5EDDC9"/>
<stop offset="1" stop-color="#00B1FB"/>
</linearGradient>
<linearGradient id="paint70_linear_36_20649" x1="-32096.8" y1="-3825.16" x2="-32149.2" y2="-3825.16" gradientUnits="userSpaceOnUse">
<stop stop-color="#5EDDC9"/>
<stop offset="1" stop-color="#00B1FB"/>
</linearGradient>
<linearGradient id="paint71_linear_36_20649" x1="-21419.9" y1="-2291.64" x2="-21443.2" y2="-2291.64" gradientUnits="userSpaceOnUse">
<stop stop-color="#5EDDC9"/>
<stop offset="1" stop-color="#00B1FB"/>
</linearGradient>
</defs>
</svg>
