<svg xmlns="http://www.w3.org/2000/svg" width="49" height="49" viewBox="0 0 49 49" fill="none">
  <path d="M16.2894 12.2173C19.5295 12.2173 22.637 13.5044 24.9281 15.7956C27.2192 18.0867 28.5064 21.1941 28.5064 24.4343C28.5064 27.6744 27.2192 30.7819 24.9281 33.073C22.637 35.3641 19.5295 36.6512 16.2894 36.6512C13.0492 36.6512 9.94179 35.3641 7.65066 33.073C5.35953 30.7819 4.07239 27.6744 4.07239 24.4343C4.07239 21.1941 5.35953 18.0867 7.65066 15.7956C9.94179 13.5044 13.0492 12.2173 16.2894 12.2173ZM34.6148 14.2534C37.6691 14.2534 39.7052 18.8124 39.7052 24.4343C39.7052 30.0561 37.6691 34.6151 34.6148 34.6151C31.5606 34.6151 29.5244 30.0561 29.5244 24.4343C29.5244 18.8124 31.5606 14.2534 34.6148 14.2534ZM42.7595 15.2715C43.5332 15.2715 44.2092 16.9554 44.5513 19.8448L44.647 20.7468L44.6857 21.2253L44.7468 22.2311L44.7672 22.7585L44.7916 23.8601L44.7957 24.4343L44.7916 25.0085L44.7672 26.11L44.7468 26.6394L44.6857 27.6433L44.645 28.1218L44.5534 29.0238C44.2092 31.9151 43.5353 33.597 42.7595 33.597C41.9858 33.597 41.3097 31.9131 40.9677 29.0238L40.872 28.1218L40.8333 27.6433L40.7722 26.6374L40.7518 26.11L40.7274 25.0085V23.8601L40.7518 22.7585L40.7722 22.2291L40.8333 21.2253L40.874 20.7468L40.9656 19.8448C41.3097 16.9534 41.9837 15.2715 42.7595 15.2715Z" fill="white"/>
</svg>