<svg width="1440" height="588" viewBox="0 0 1440 588" fill="none" xmlns="http://www.w3.org/2000/svg">
<g style="mix-blend-mode:luminosity" opacity="0.38">
<path d="M1435.74 35.0091L1435.52 164.464L1435.3 293.918V423.373L1435.52 552.99C1435.52 553.315 1436.18 553.641 1436.84 553.641C1437.5 553.641 1438.16 553.315 1438.16 552.99L1438.37 423.373L1438.59 293.918V164.464L1438.37 35.0091C1438.37 34.5206 1437.72 34.1949 1437.06 34.1949C1436.4 34.1949 1435.74 34.5206 1435.74 35.0091Z" fill="url(#paint0_linear_34_19101)"/>
<path d="M1400.12 46.2448L1399.68 108.122V170L1399.46 293.918V417.836V479.714L1399.68 541.754C1399.68 542.08 1400.12 542.405 1400.78 542.405C1401.22 542.405 1401.88 542.08 1401.88 541.754L1402.1 479.714V417.836L1402.54 293.918L1402.32 170V108.122L1402.1 46.2448C1402.1 45.7563 1401.66 45.5934 1401 45.5934C1400.56 45.5934 1400.12 45.7563 1400.12 46.2448Z" fill="url(#paint1_linear_34_19101)"/>
<path d="M1364.28 57.4808L1363.84 116.59V175.7L1363.4 293.918L1363.62 412.137V471.246L1363.84 530.356C1363.84 530.682 1364.28 531.007 1364.72 531.007C1365.16 531.007 1365.6 530.682 1365.6 530.356L1365.82 471.246L1366.04 412.137L1366.26 293.918V175.7V116.59L1366.04 57.4808C1366.04 57.1551 1365.6 56.8295 1365.16 56.8295C1364.72 56.8295 1364.28 57.1551 1364.28 57.4808Z" fill="url(#paint2_linear_34_19101)"/>
<path d="M1328.44 68.7163L1328 124.895V181.236L1327.56 293.918V406.6V462.779L1327.78 519.12C1327.78 519.446 1328.22 519.609 1328.66 519.609C1328.88 519.609 1329.32 519.446 1329.32 519.12L1329.76 462.779V406.6L1330.2 293.918V181.236L1329.98 124.895L1329.76 68.7163C1329.76 68.3906 1329.54 68.2278 1329.1 68.2278C1328.66 68.2278 1328.44 68.3906 1328.44 68.7163Z" fill="url(#paint3_linear_34_19101)"/>
<path d="M1292.6 79.9519L1292.16 133.362L1291.95 186.935L1291.72 293.918V400.901V454.474L1291.95 507.884C1291.95 508.047 1292.16 508.21 1292.6 508.21C1292.82 508.21 1293.04 508.047 1293.04 507.884L1293.48 454.474L1293.7 400.901L1294.14 293.918L1293.92 186.935V133.362L1293.7 79.9519C1293.7 79.6263 1293.48 79.4634 1293.26 79.6263C1292.82 79.6263 1292.6 79.6263 1292.6 79.9519Z" fill="url(#paint4_linear_34_19101)"/>
<path d="M1256.76 91.0252L1256.32 141.83L1256.1 192.472L1255.66 293.919L1255.88 395.202V446.007L1256.1 496.649C1256.1 496.812 1256.32 496.975 1256.54 496.975C1256.76 496.975 1256.76 496.812 1256.76 496.649L1257.2 446.007L1257.42 395.202L1257.86 293.919V192.472V141.83L1257.64 91.0252C1257.64 91.0252 1257.42 90.8623 1257.2 90.8623C1256.98 90.8623 1256.76 91.0252 1256.76 91.0252Z" fill="url(#paint5_linear_34_19101)"/>
<path d="M1220.92 102.258L1220.48 150.295L1220.26 198.169L1219.82 293.916V389.663V437.537L1220.04 485.411C1220.04 485.519 1220.19 485.574 1220.48 485.574C1220.63 485.574 1220.7 485.519 1220.7 485.411L1221.14 437.537L1221.36 389.663L1221.8 293.916V198.169V150.295L1221.58 102.258C1221.58 102.15 1221.43 102.095 1221.14 102.095C1220.99 102.095 1220.92 102.15 1220.92 102.258Z" fill="url(#paint6_linear_34_19101)"/>
<path d="M1185.09 113.497L1184.65 158.602L1184.43 203.708L1183.99 293.919V383.967V429.073L1184.21 474.178C1184.21 474.178 1184.28 474.178 1184.43 474.178L1184.87 429.073L1185.09 383.967L1185.53 293.919L1185.75 203.708V158.602L1185.53 113.497C1185.38 113.497 1185.31 113.497 1185.31 113.497C1185.16 113.497 1185.09 113.497 1185.09 113.497Z" fill="url(#paint7_linear_34_19101)"/>
<path d="M1149.24 124.73L1148.81 167.067L1148.37 209.242L1147.93 293.753V378.428V420.602L1148.15 462.94C1148.29 462.94 1148.37 462.94 1148.37 462.94L1148.81 420.602L1149.03 378.428L1149.46 293.916V209.242V167.067V124.73C1149.46 124.73 1149.39 124.73 1149.24 124.73Z" fill="url(#paint8_linear_34_19101)"/>
<path d="M1113.18 135.966L1112.74 175.535L1112.52 214.942L1112.08 293.754V372.729V412.136V451.542C1112.08 451.651 1112.08 451.705 1112.08 451.705C1112.23 451.705 1112.3 451.651 1112.3 451.542L1112.74 412.136L1112.96 372.729L1113.4 293.754V214.942V175.535V135.966C1113.4 135.966 1113.33 135.966 1113.18 135.966Z" fill="url(#paint9_linear_34_19101)"/>
<path d="M1077.34 147.202L1076.9 183.84L1076.68 220.478L1076.24 293.755L1076.02 367.031V403.669V440.307L1076.46 403.669L1076.68 367.031L1077.12 293.755L1077.34 220.478V183.84V147.202Z" fill="url(#paint10_linear_34_19101)"/>
<path d="M1544.14 0.162109L1077.35 147.203L1545.9 2.27895L1544.14 0.162109Z" fill="url(#paint11_linear_34_19101)"/>
<path d="M1544.36 65.1321L1077.13 179.769L1545.68 67.4118L1544.36 65.1321Z" fill="url(#paint12_linear_34_19101)"/>
<path d="M1544.36 130.267L1077.13 212.336L1545.46 132.547L1544.36 130.267Z" fill="url(#paint13_linear_34_19101)"/>
<path d="M1544.58 195.24L1076.91 244.905L1545.46 197.52L1544.58 195.24Z" fill="url(#paint14_linear_34_19101)"/>
<path d="M1544.8 260.21L1076.69 277.471L1545.02 262.652L1544.8 260.21Z" fill="url(#paint15_linear_34_19101)"/>
<path d="M1545.02 325.344L1076.69 310.037L1544.8 327.786L1545.02 325.344Z" fill="url(#paint16_linear_34_19101)"/>
<path d="M1545.46 390.315L1076.47 342.604L1544.58 392.758L1545.46 390.315Z" fill="url(#paint17_linear_34_19101)"/>
<path d="M1545.46 455.45L1076.47 375.172L1544.36 457.73L1545.46 455.45Z" fill="url(#paint18_linear_34_19101)"/>
<path d="M1545.68 520.585L1076.24 407.74L1544.36 522.865L1545.68 520.585Z" fill="url(#paint19_linear_34_19101)"/>
<path d="M1545.9 585.72L1076.02 440.307L1544.14 587.836L1545.9 585.72Z" fill="url(#paint20_linear_34_19101)"/>
<path d="M1213.89 588C1214.99 588 1215.87 587.349 1215.87 586.697V1.30267C1215.87 0.651323 1214.99 0 1213.89 0C1212.79 0 1211.91 0.651323 1211.91 1.30267V586.697C1211.91 587.349 1212.79 588 1213.89 588Z" fill="url(#paint21_linear_34_19101)"/>
<path d="M1190.8 12.5382L1190.58 293.918L1190.8 575.461C1190.8 576.113 1191.46 576.439 1192.56 576.439C1193.44 576.439 1194.1 576.113 1194.1 575.461L1194.32 293.918V12.5382C1194.32 11.8868 1193.44 11.3983 1192.56 11.3983C1191.46 11.3983 1190.8 11.8868 1190.8 12.5382Z" fill="url(#paint22_linear_34_19101)"/>
<path d="M1169.69 23.7737L1169.25 293.918L1169.47 564.226C1169.47 564.714 1170.13 565.04 1171.01 565.04C1171.89 565.04 1172.55 564.714 1172.55 564.226L1172.77 293.918L1172.55 23.7737C1172.55 23.2852 1171.89 22.7966 1171.01 22.7966C1170.35 22.7966 1169.69 23.2852 1169.69 23.7737Z" fill="url(#paint23_linear_34_19101)"/>
<path d="M1148.37 35.0091L1148.15 164.464L1147.93 293.918L1148.15 423.373L1148.37 552.99C1148.37 553.315 1148.81 553.641 1149.46 553.641C1150.34 553.641 1150.78 553.315 1150.78 552.99L1151.22 423.373V293.918V164.464L1151 35.0091C1151 34.5206 1150.34 34.1949 1149.68 34.1949C1149.03 34.1949 1148.37 34.5206 1148.37 35.0091Z" fill="url(#paint24_linear_34_19101)"/>
<path d="M1127.26 46.2448L1127.04 108.122L1126.82 170L1126.6 293.918L1126.82 417.836V479.714L1127.04 541.754C1127.04 542.08 1127.48 542.405 1128.14 542.405C1128.58 542.405 1129.24 542.08 1129.24 541.754L1129.46 479.714V417.836L1129.68 293.918V170V108.122L1129.46 46.2448C1129.46 45.7563 1128.8 45.5934 1128.36 45.5934C1127.7 45.5934 1127.26 45.7563 1127.26 46.2448Z" fill="url(#paint25_linear_34_19101)"/>
<path d="M1105.93 57.4808L1105.71 116.59L1105.48 175.7L1105.26 293.918L1105.48 412.137V471.246L1105.71 530.356C1105.71 530.682 1106.14 531.007 1106.58 531.007C1107.02 531.007 1107.46 530.682 1107.46 530.356L1107.9 471.246V412.137L1108.12 293.918V175.7L1107.9 116.59L1107.68 57.4808C1107.68 57.1551 1107.46 56.8295 1106.8 56.8295C1106.36 56.8295 1105.93 57.1551 1105.93 57.4808Z" fill="url(#paint26_linear_34_19101)"/>
<path d="M1084.82 68.7163L1084.38 124.895V181.236L1083.94 293.918L1084.16 406.6V462.779L1084.38 519.12C1084.38 519.446 1084.82 519.609 1085.26 519.609C1085.48 519.609 1085.92 519.446 1085.92 519.12L1086.14 462.779L1086.36 406.6L1086.58 293.918V181.236L1086.36 124.895L1086.14 68.7163C1086.14 68.3906 1085.92 68.2278 1085.48 68.2278C1085.04 68.2278 1084.82 68.3906 1084.82 68.7163Z" fill="url(#paint27_linear_34_19101)"/>
<path d="M1063.49 79.9519L1063.27 133.362L1063.05 186.935L1062.61 293.918L1062.83 400.901V454.474L1063.05 507.884C1063.05 508.047 1063.49 508.21 1063.71 508.21C1063.93 508.21 1064.15 508.047 1064.15 507.884L1064.59 454.474L1064.81 400.901L1065.03 293.918V186.935L1064.81 133.362L1064.59 79.9519C1064.59 79.6263 1064.37 79.4634 1064.15 79.6263C1063.71 79.6263 1063.49 79.6263 1063.49 79.9519Z" fill="url(#paint28_linear_34_19101)"/>
<path d="M1042.16 91.0252L1041.94 141.83L1041.72 192.472L1041.28 293.919L1041.5 395.202V446.007L1041.72 496.649C1041.72 496.812 1041.94 496.975 1042.16 496.975C1042.38 496.975 1042.6 496.812 1042.6 496.649L1043.04 446.007L1043.26 395.202L1043.48 293.919V192.472L1043.26 141.83L1043.04 91.0252C1043.04 91.0252 1042.82 90.8623 1042.6 90.8623C1042.38 90.8623 1042.16 91.0252 1042.16 91.0252Z" fill="url(#paint29_linear_34_19101)"/>
<path d="M1021.06 102.258L1020.62 150.295L1020.4 198.169L1019.96 293.916L1020.18 389.663V437.537L1020.4 485.411C1020.4 485.519 1020.54 485.574 1020.84 485.574C1020.98 485.574 1021.06 485.519 1021.06 485.411L1021.5 437.537L1021.72 389.663L1021.94 293.916V198.169V150.295L1021.5 102.258C1021.5 102.15 1021.42 102.095 1021.28 102.095C1021.13 102.095 1021.06 102.15 1021.06 102.258Z" fill="url(#paint30_linear_34_19101)"/>
<path d="M999.73 113.497L999.291 158.602L999.071 203.708L998.63 293.919L998.85 383.967V429.073L999.071 474.178C999.071 474.178 999.144 474.178 999.291 474.178C999.437 474.178 999.511 474.178 999.511 474.178L999.95 429.073L1000.17 383.967L1000.39 293.919V203.708V158.602L999.95 113.497C999.803 113.497 999.73 113.497 999.73 113.497Z" fill="url(#paint31_linear_34_19101)"/>
<path d="M978.402 124.73L977.961 167.067L977.741 209.242L977.522 293.753V378.428V420.602L977.741 462.94C977.741 462.94 977.815 462.94 977.961 462.94L978.402 420.602L978.622 378.428L978.841 293.753V209.242V167.067L978.622 124.73C978.622 124.73 978.548 124.73 978.402 124.73Z" fill="url(#paint32_linear_34_19101)"/>
<path d="M957.075 135.966L956.636 175.535L956.416 214.942L956.195 293.754V372.729V412.136L956.416 451.542L956.855 412.136L957.075 372.729L957.295 293.754V214.942V175.535L957.075 135.966Z" fill="url(#paint33_linear_34_19101)"/>
<path d="M935.749 147.202L935.309 183.84L935.089 220.478L934.869 293.755V367.031V403.669V440.307L935.309 403.669L935.529 367.031L935.749 293.755V220.478V183.84V147.202Z" fill="url(#paint34_linear_34_19101)"/>
<path d="M1212.57 0.324341L935.745 147.202L1215.21 2.11549L1212.57 0.324341Z" fill="url(#paint35_linear_34_19101)"/>
<path d="M1212.79 65.2972L935.526 179.771L1214.99 67.2512L1212.79 65.2972Z" fill="url(#paint36_linear_34_19101)"/>
<path d="M1213.01 130.267L935.526 212.336L1214.77 132.384L1213.01 130.267Z" fill="url(#paint37_linear_34_19101)"/>
<path d="M1213.45 195.24L935.307 244.905L1214.55 197.52L1213.45 195.24Z" fill="url(#paint38_linear_34_19101)"/>
<path d="M1213.67 260.21L935.307 277.471L1214.11 262.652L1213.67 260.21Z" fill="url(#paint39_linear_34_19101)"/>
<path d="M1214.11 325.344L935.307 310.037L1213.67 327.786L1214.11 325.344Z" fill="url(#paint40_linear_34_19101)"/>
<path d="M1214.55 390.478L935.088 342.604L1213.45 392.758L1214.55 390.478Z" fill="url(#paint41_linear_34_19101)"/>
<path d="M1214.77 455.613L935.088 375.172L1213.01 457.73L1214.77 455.613Z" fill="url(#paint42_linear_34_19101)"/>
<path d="M1214.99 520.748L935.088 407.74L1212.79 522.702L1214.99 520.748Z" fill="url(#paint43_linear_34_19101)"/>
<path d="M1215.21 585.882L934.869 440.307L1212.57 587.673L1215.21 585.882Z" fill="url(#paint44_linear_34_19101)"/>
<path d="M882.752 588C883.851 588 884.95 587.349 884.95 586.697V1.30267C884.95 0.651323 883.851 0 882.752 0C881.652 0 880.773 0.651323 880.773 1.30267V586.697C880.773 587.349 881.652 588 882.752 588Z" fill="url(#paint45_linear_34_19101)"/>
<path d="M874.18 12.5382V293.918V575.461C874.18 576.113 875.059 576.439 875.939 576.439C877.038 576.439 877.697 576.113 877.697 575.461L877.918 293.918L877.697 12.5382C877.697 11.8868 877.038 11.3983 875.939 11.3983C875.059 11.3983 874.18 11.8868 874.18 12.5382Z" fill="url(#paint46_linear_34_19101)"/>
<path d="M867.581 23.7737L867.361 293.918L867.581 564.226C867.581 564.714 868.24 565.04 869.119 565.04C869.999 565.04 870.659 564.714 870.659 564.226L870.879 293.918L870.659 23.7737C870.659 23.2852 869.999 22.7966 869.119 22.7966C868.24 22.7966 867.581 23.2852 867.581 23.7737Z" fill="url(#paint47_linear_34_19101)"/>
<path d="M860.989 35.0091L860.769 164.464L860.549 293.918L860.769 423.373L860.989 552.99C860.989 553.315 861.648 553.641 862.307 553.641C862.967 553.641 863.627 553.315 863.627 552.99L863.847 423.373L864.067 293.918L863.847 164.464L863.627 35.0091C863.627 34.5206 862.967 34.1949 862.307 34.1949C861.648 34.1949 860.989 34.5206 860.989 35.0091Z" fill="url(#paint48_linear_34_19101)"/>
<path d="M854.388 46.2448L854.168 108.122V170L853.948 293.918L854.168 417.836V479.714L854.388 541.754C854.388 542.08 854.828 542.405 855.488 542.405C855.928 542.405 856.587 542.08 856.587 541.754L856.806 479.714V417.836L857.026 293.918L856.806 170V108.122L856.587 46.2448C856.587 45.7563 856.147 45.5934 855.488 45.5934C854.828 45.5934 854.388 45.7563 854.388 46.2448Z" fill="url(#paint49_linear_34_19101)"/>
<path d="M847.797 57.4808L847.577 116.59L847.357 175.7L847.136 293.918L847.357 412.137V471.246L847.797 530.356C847.797 530.682 848.016 531.007 848.676 531.007C849.116 531.007 849.555 530.682 849.555 530.356L849.775 471.246V412.137L849.995 293.918V175.7L849.775 116.59L849.555 57.4808C849.555 57.1551 849.116 56.8295 848.676 56.8295C848.236 56.8295 847.797 57.1551 847.797 57.4808Z" fill="url(#paint50_linear_34_19101)"/>
<path d="M841.196 68.7163L840.756 124.895V181.236L840.536 293.918V406.6L840.756 462.779L840.976 519.12C840.976 519.446 841.415 519.609 841.635 519.609C842.075 519.609 842.514 519.446 842.514 519.12L842.735 462.779L842.955 406.6L843.175 293.918L842.955 181.236L842.735 124.895L842.514 68.7163C842.514 68.3906 842.295 68.2278 841.855 68.2278C841.416 68.2278 841.196 68.3906 841.196 68.7163Z" fill="url(#paint51_linear_34_19101)"/>
<path d="M834.384 79.9519L834.164 133.362L833.944 186.935L833.724 293.918L833.944 400.901V454.474L834.384 507.884C834.384 508.047 834.604 508.21 834.823 508.21C835.263 508.21 835.484 508.047 835.484 507.884L835.704 454.474L835.923 400.901L836.143 293.918L835.923 186.935V133.362L835.484 79.9519C835.484 79.6263 835.263 79.4634 835.044 79.6263C834.604 79.6263 834.384 79.6263 834.384 79.9519Z" fill="url(#paint52_linear_34_19101)"/>
<path d="M827.784 91.0252L827.343 141.83V192.472L826.904 293.919L827.123 395.202L827.343 446.007L827.564 496.649C827.564 496.812 827.784 496.975 828.004 496.975C828.224 496.975 828.443 496.812 828.443 496.649L828.883 446.007V395.202L829.103 293.919L828.883 192.472V141.83L828.663 91.0252C828.663 91.0252 828.443 90.8623 828.223 90.8623C828.003 90.8623 827.784 91.0252 827.784 91.0252Z" fill="url(#paint53_linear_34_19101)"/>
<path d="M820.971 102.258L820.751 150.295L820.531 198.169L820.312 293.916L820.531 389.663V437.537L820.971 485.411C820.971 485.519 821.044 485.574 821.191 485.574C821.338 485.574 821.411 485.519 821.411 485.411L821.85 437.537V389.663L822.29 293.916L822.07 198.169L821.85 150.295L821.63 102.258C821.63 102.15 821.558 102.095 821.411 102.095C821.118 102.095 820.971 102.15 820.971 102.258Z" fill="url(#paint54_linear_34_19101)"/>
<path d="M814.371 113.497L813.931 158.602L813.712 203.708L813.492 293.919L813.712 383.967V429.073L814.151 474.178C814.151 474.178 814.225 474.178 814.371 474.178C814.518 474.178 814.591 474.178 814.591 474.178L814.811 429.073L815.03 383.967L815.251 293.919L815.03 203.708V158.602L814.591 113.497C814.445 113.497 814.371 113.497 814.371 113.497Z" fill="url(#paint55_linear_34_19101)"/>
<path d="M807.558 124.73L807.119 167.067V209.242L806.899 293.753V378.428L807.119 420.602L807.338 462.94C807.338 462.94 807.412 462.94 807.558 462.94L807.999 420.602V378.428L808.219 293.753V209.242L807.999 167.067L807.778 124.73C807.778 124.73 807.705 124.73 807.558 124.73Z" fill="url(#paint56_linear_34_19101)"/>
<path d="M800.739 135.966L800.52 175.535L800.3 214.942L800.08 293.754L800.3 372.729V412.136L800.52 451.542C800.52 451.651 800.52 451.705 800.52 451.705C800.666 451.705 800.739 451.651 800.739 451.542L800.959 412.136L801.179 372.729L801.399 293.754L801.179 214.942V175.535L800.959 135.966C800.959 135.966 800.885 135.966 800.739 135.966Z" fill="url(#paint57_linear_34_19101)"/>
<path d="M793.928 147.202L793.708 183.84L793.488 220.478L793.268 293.755L793.488 367.031V403.669L793.708 440.307L793.928 403.669L794.147 367.031L794.367 293.755V220.478L794.147 183.84L793.928 147.202Z" fill="url(#paint58_linear_34_19101)"/>
<path d="M880.995 0.813721L793.925 147.203L884.733 1.6279L880.995 0.813721Z" fill="url(#paint59_linear_34_19101)"/>
<path d="M880.995 65.7837L793.925 179.769L884.733 66.7607L880.995 65.7837Z" fill="url(#paint60_linear_34_19101)"/>
<path d="M881.215 130.756L793.925 212.337L884.513 132.059L881.215 130.756Z" fill="url(#paint61_linear_34_19101)"/>
<path d="M881.435 195.564L793.925 244.903L884.293 197.355L881.435 195.564Z" fill="url(#paint62_linear_34_19101)"/>
<path d="M882.314 260.372L793.925 277.47L883.413 262.652L882.314 260.372Z" fill="url(#paint63_linear_34_19101)"/>
<path d="M883.413 325.344L793.925 310.037L882.314 327.623L883.413 325.344Z" fill="url(#paint64_linear_34_19101)"/>
<path d="M884.293 390.641L793.925 342.604L881.435 392.432L884.293 390.641Z" fill="url(#paint65_linear_34_19101)"/>
<path d="M884.514 455.939L793.706 375.172L881.216 457.241L884.514 455.939Z" fill="url(#paint66_linear_34_19101)"/>
<path d="M884.734 521.236L793.706 407.74L880.996 522.213L884.734 521.236Z" fill="url(#paint67_linear_34_19101)"/>
<path d="M884.734 586.371L793.706 440.307L880.996 587.185L884.734 586.371Z" fill="url(#paint68_linear_34_19101)"/>
<path d="M0.614354 35.0091L0.394264 164.464V293.918L0.614354 423.373L0.834444 552.99C0.834444 553.315 1.49429 553.641 2.15391 553.641C2.81354 553.641 3.47338 553.315 3.47338 552.99V423.373L3.69239 293.918L3.47338 164.464L3.0332 35.0091C3.0332 34.5206 2.59345 34.1949 1.93382 34.1949C1.05432 34.1949 0.614354 34.5206 0.614354 35.0091Z" fill="url(#paint69_linear_34_19101)"/>
<path d="M36.6743 46.2448L36.4553 108.122V170V293.918L36.6743 417.836L36.8944 479.714L37.1145 541.754C37.1145 542.08 37.5543 542.405 38.2139 542.405C38.8735 542.405 39.3133 542.08 39.3133 541.754L39.5333 479.714V417.836V293.918L39.3133 170L39.0932 108.122L38.8731 46.2448C38.8731 45.7563 38.4333 45.5934 37.7737 45.5934C37.1141 45.5934 36.6743 45.7563 36.6743 46.2448Z" fill="url(#paint70_linear_34_19101)"/>
<path d="M72.9555 57.4808L72.7364 116.59V175.7L72.5164 293.918L72.9555 412.137V471.246L73.3956 530.356C73.3956 530.682 73.8352 531.007 74.2749 531.007C74.7147 531.007 75.1542 530.682 75.1542 530.356L75.3743 471.246V412.137V293.918L75.1542 175.7L74.9352 116.59L74.7151 57.4808C74.7151 57.1551 74.2756 56.8295 73.8358 56.8295C73.3961 56.8295 72.9555 57.1551 72.9555 57.4808Z" fill="url(#paint71_linear_34_19101)"/>
<path d="M109.016 68.7163L108.796 124.895V181.236V293.918L109.016 406.6L109.235 462.779L109.676 519.12C109.676 519.446 109.895 519.609 110.335 519.609C110.775 519.609 110.995 519.446 110.995 519.12L111.215 462.779V406.6L111.434 293.918L110.995 181.236L110.775 124.895L110.555 68.7163C110.555 68.3906 110.115 68.2278 109.676 68.2278C109.456 68.2278 109.016 68.3906 109.016 68.7163Z" fill="url(#paint72_linear_34_19101)"/>
<path d="M145.29 79.9519L144.85 133.362V186.935V293.918L145.29 400.901L145.509 454.474L145.729 507.884C145.729 508.047 146.169 508.21 146.389 508.21C146.609 508.21 146.828 508.047 146.828 507.884L147.268 454.474V400.901V293.918L146.828 186.935L146.608 133.362L146.389 79.9519C146.389 79.6263 145.949 79.4634 145.729 79.6263C145.509 79.6263 145.29 79.6263 145.29 79.9519Z" fill="url(#paint73_linear_34_19101)"/>
<path d="M181.351 91.188L181.131 141.83V192.472L180.911 293.919L181.351 395.202L181.571 446.007L182.01 496.649C182.01 496.812 182.23 496.975 182.45 496.975C182.67 496.975 182.889 496.812 182.889 496.649L183.109 446.007V395.202V293.919L182.67 192.472L182.45 141.83L182.23 91.0252C182.23 91.0252 182.01 90.8623 181.79 90.8623C181.57 90.8623 181.351 91.0252 181.351 91.188Z" fill="url(#paint74_linear_34_19101)"/>
<path d="M217.411 102.258L217.191 150.295V198.169V293.916L217.631 389.663L217.851 437.537L218.29 485.411C218.29 485.519 218.364 485.574 218.51 485.574C218.657 485.574 218.73 485.519 218.73 485.411L218.95 437.537V389.663L219.169 293.916L218.73 198.169L218.51 150.295L218.07 102.258C218.07 102.15 217.924 102.095 217.631 102.095C217.484 102.095 217.411 102.15 217.411 102.258Z" fill="url(#paint75_linear_34_19101)"/>
<path d="M253.472 113.497L253.252 158.602V203.708V293.919L253.692 383.967L253.912 429.073L254.351 474.178C254.351 474.178 254.425 474.178 254.571 474.178C254.718 474.178 254.791 474.178 254.791 474.178L255.011 429.073V383.967V293.919L254.571 203.708L254.351 158.602L253.912 113.497C253.912 113.497 253.838 113.497 253.692 113.497C253.545 113.497 253.472 113.497 253.472 113.497Z" fill="url(#paint76_linear_34_19101)"/>
<path d="M289.532 124.73L289.313 167.067V209.242V293.916L289.972 378.428L290.192 420.602L290.631 462.94C290.778 462.94 290.851 462.94 290.851 462.94V420.602V378.428V293.753L290.412 209.242L290.192 167.067L289.752 124.73C289.605 124.73 289.532 124.73 289.532 124.73Z" fill="url(#paint77_linear_34_19101)"/>
<path d="M325.594 135.966L325.374 175.535V214.942L325.594 293.754L326.033 372.729L326.253 412.136L326.693 451.542L326.912 412.136V372.729V293.754L326.253 214.942L326.033 175.535L325.594 135.966Z" fill="url(#paint78_linear_34_19101)"/>
<path d="M361.647 147.202L361.427 183.84L361.647 220.478V293.755L362.086 367.031L362.306 403.669L362.746 440.307L362.966 403.669L362.746 367.031V293.755L362.306 220.478L362.086 183.84L361.647 147.202Z" fill="url(#paint79_linear_34_19101)"/>
<path d="M-107.124 2.27895L361.651 147.203L-105.145 0.162109L-107.124 2.27895Z" fill="url(#paint80_linear_34_19101)"/>
<path d="M-106.905 67.4118L361.649 179.769L-105.366 65.1321L-106.905 67.4118Z" fill="url(#paint81_linear_34_19101)"/>
<path d="M-106.686 132.547L361.868 212.336L-105.587 130.267L-106.686 132.547Z" fill="url(#paint82_linear_34_19101)"/>
<path d="M-106.467 197.52L362.086 244.905L-105.808 195.24L-106.467 197.52Z" fill="url(#paint83_linear_34_19101)"/>
<path d="M-106.248 262.652L362.086 277.471L-106.028 260.21L-106.248 262.652Z" fill="url(#paint84_linear_34_19101)"/>
<path d="M-106.028 327.786L362.306 310.037L-106.248 325.344L-106.028 327.786Z" fill="url(#paint85_linear_34_19101)"/>
<path d="M-105.808 392.758L362.306 342.604L-106.467 390.315L-105.808 392.758Z" fill="url(#paint86_linear_34_19101)"/>
<path d="M-105.587 457.73L362.528 375.172L-106.686 455.45L-105.587 457.73Z" fill="url(#paint87_linear_34_19101)"/>
<path d="M-105.366 522.865L362.749 407.74L-106.905 520.585L-105.366 522.865Z" fill="url(#paint88_linear_34_19101)"/>
<path d="M-105.145 587.836L362.75 440.307L-107.124 585.72L-105.145 587.836Z" fill="url(#paint89_linear_34_19101)"/>
<path d="M224.886 588C225.986 588 227.085 587.349 227.085 586.697V1.30267C227.085 0.651323 225.986 0 224.886 0C223.787 0 222.908 0.651323 222.908 1.30267V586.697C222.908 587.349 223.787 588 224.886 588Z" fill="url(#paint90_linear_34_19101)"/>
<path d="M244.673 12.5382L244.453 293.918L244.673 575.461C244.673 576.113 245.554 576.439 246.433 576.439C247.313 576.439 248.192 576.113 248.192 575.461V293.918V12.5382C248.192 11.8868 247.313 11.3983 246.433 11.3983C245.334 11.3983 244.673 11.8868 244.673 12.5382Z" fill="url(#paint91_linear_34_19101)"/>
<path d="M266.227 23.7737L266.007 293.918L266.446 564.226C266.446 564.714 267.106 565.04 267.986 565.04C268.645 565.04 269.305 564.714 269.305 564.226L269.525 293.918L269.305 23.7737C269.305 23.2852 268.645 22.7966 267.766 22.7966C266.886 22.7966 266.227 23.2852 266.227 23.7737Z" fill="url(#paint92_linear_34_19101)"/>
<path d="M287.993 35.0091L287.773 164.464L287.553 293.918L287.773 423.373L287.993 552.99C287.993 553.315 288.653 553.641 289.313 553.641C289.972 553.641 290.631 553.315 290.631 552.99L290.851 423.373V293.918V164.464L290.412 35.0091C290.412 34.5206 289.972 34.1949 289.093 34.1949C288.433 34.1949 287.993 34.5206 287.993 35.0091Z" fill="url(#paint93_linear_34_19101)"/>
<path d="M309.538 46.2448L309.318 108.122V170L309.099 293.918L309.318 417.836L309.538 479.714L309.758 541.754C309.758 542.08 310.198 542.405 310.858 542.405C311.517 542.405 311.957 542.08 311.957 541.754L312.177 479.714V417.836V293.918L311.957 170V108.122L311.737 46.2448C311.737 45.7563 311.297 45.5934 310.637 45.5934C309.978 45.5934 309.538 45.7563 309.538 46.2448Z" fill="url(#paint94_linear_34_19101)"/>
<path d="M331.085 57.4808L330.865 116.59V175.7L330.645 293.918L330.865 412.137L331.085 471.246L331.304 530.356C331.304 530.682 331.745 531.007 332.184 531.007C332.844 531.007 333.064 530.682 333.064 530.356L333.503 471.246V412.137V293.918L333.284 175.7V116.59L332.844 57.4808C332.844 57.1551 332.404 56.8295 331.964 56.8295C331.525 56.8295 331.085 57.1551 331.085 57.4808Z" fill="url(#paint95_linear_34_19101)"/>
<path d="M352.639 68.7163L352.419 124.895V181.236L352.199 293.918L352.639 406.6V462.779L353.079 519.12C353.079 519.446 353.298 519.609 353.738 519.609C354.178 519.609 354.397 519.446 354.397 519.12L354.617 462.779L354.837 406.6V293.918L354.617 181.236L354.397 124.895L354.178 68.7163C354.178 68.3906 353.738 68.2278 353.518 68.2278C353.078 68.2278 352.639 68.3906 352.639 68.7163Z" fill="url(#paint96_linear_34_19101)"/>
<path d="M374.184 79.9519L373.965 133.362V186.935L373.744 293.918L374.184 400.901V454.474L374.624 507.884C374.624 508.047 374.843 508.21 375.283 508.21C375.503 508.21 375.723 508.047 375.723 507.884L375.943 454.474L376.163 400.901V293.918L375.943 186.935L375.723 133.362L375.283 79.9519C375.283 79.6263 375.064 79.4634 374.844 79.6263C374.624 79.6263 374.184 79.6263 374.184 79.9519Z" fill="url(#paint97_linear_34_19101)"/>
<path d="M395.731 91.0252L395.51 141.83V192.472L395.29 293.919L395.731 395.202L395.951 446.007L396.17 496.649C396.17 496.812 396.39 496.975 396.61 496.975C396.83 496.975 397.05 496.812 397.05 496.649L397.269 446.007L397.489 395.202V293.919L397.269 192.472L397.05 141.83L396.61 91.0252C396.61 91.0252 396.39 90.8623 396.17 90.8623C395.95 90.8623 395.731 91.0252 395.731 91.0252Z" fill="url(#paint98_linear_34_19101)"/>
<path d="M417.275 102.258L417.055 150.295V198.169L416.836 293.916L417.275 389.663L417.496 437.537L417.936 485.411C417.936 485.519 418.008 485.574 418.155 485.574C418.301 485.574 418.375 485.519 418.375 485.411L418.595 437.537L418.815 389.663V293.916L418.595 198.169L418.375 150.295L417.936 102.258C417.936 102.15 417.862 102.095 417.716 102.095C417.422 102.095 417.275 102.15 417.275 102.258Z" fill="url(#paint99_linear_34_19101)"/>
<path d="M438.822 113.497L438.602 158.602V203.708L438.382 293.919L438.822 383.967L439.041 429.073L439.482 474.178C439.628 474.178 439.702 474.178 439.702 474.178L440.141 429.073V383.967V293.919L439.922 203.708L439.702 158.602L439.261 113.497C439.261 113.497 439.188 113.497 439.041 113.497C438.895 113.497 438.822 113.497 438.822 113.497Z" fill="url(#paint100_linear_34_19101)"/>
<path d="M460.376 124.73L460.156 167.067V209.242L459.936 293.753L460.376 378.428L460.596 420.602L461.035 462.94C461.182 462.94 461.255 462.94 461.255 462.94L461.475 420.602V378.428V293.753L461.035 209.242V167.067L460.596 124.73C460.596 124.73 460.523 124.73 460.376 124.73Z" fill="url(#paint101_linear_34_19101)"/>
<path d="M481.702 135.966V175.535L481.482 214.942V293.754L481.921 372.729L482.141 412.136L482.361 451.542C482.361 451.651 482.435 451.705 482.581 451.705C482.581 451.705 482.581 451.651 482.581 451.542L482.801 412.136V372.729V293.754L482.361 214.942V175.535L481.921 135.966C481.921 135.966 481.848 135.966 481.702 135.966Z" fill="url(#paint102_linear_34_19101)"/>
<path d="M503.248 147.202L503.028 183.84V220.478V293.755L503.468 367.031L503.688 403.669L503.907 440.307L504.127 403.669V367.031V293.755L503.688 220.478V183.84L503.248 147.202Z" fill="url(#paint103_linear_34_19101)"/>
<path d="M223.564 2.11549L503.246 147.202L226.203 0.324341L223.564 2.11549Z" fill="url(#paint104_linear_34_19101)"/>
<path d="M223.783 67.2512L503.245 179.771L226.202 65.2972L223.783 67.2512Z" fill="url(#paint105_linear_34_19101)"/>
<path d="M224.01 132.384L503.472 212.336L225.769 130.267L224.01 132.384Z" fill="url(#paint106_linear_34_19101)"/>
<path d="M224.448 197.52L503.47 244.905L225.548 195.24L224.448 197.52Z" fill="url(#paint107_linear_34_19101)"/>
<path d="M224.886 262.652L503.689 277.471L225.106 260.21L224.886 262.652Z" fill="url(#paint108_linear_34_19101)"/>
<path d="M225.106 327.786L503.689 310.037L224.886 325.344L225.106 327.786Z" fill="url(#paint109_linear_34_19101)"/>
<path d="M225.548 392.758L503.69 342.604L224.448 390.478L225.548 392.758Z" fill="url(#paint110_linear_34_19101)"/>
<path d="M225.769 457.73L503.911 375.172L224.01 455.613L225.769 457.73Z" fill="url(#paint111_linear_34_19101)"/>
<path d="M226.202 522.702L503.904 407.74L223.783 520.748L226.202 522.702Z" fill="url(#paint112_linear_34_19101)"/>
<path d="M226.203 587.673L503.906 440.307L223.564 585.882L226.203 587.673Z" fill="url(#paint113_linear_34_19101)"/>
<path d="M556.02 588C557.12 588 557.999 587.349 557.999 586.697V1.30267C557.999 0.651323 557.12 0 556.02 0C554.921 0 554.042 0.651323 554.042 1.30267V586.697C554.042 587.349 554.921 588 556.02 588Z" fill="url(#paint114_linear_34_19101)"/>
<path d="M561.073 12.5382V293.918V575.461C561.073 576.113 561.953 576.439 562.832 576.439C563.932 576.439 564.591 576.113 564.591 575.461L564.811 293.918L564.591 12.5382C564.591 11.8868 563.932 11.3983 562.832 11.3983C561.953 11.3983 561.073 11.8868 561.073 12.5382Z" fill="url(#paint115_linear_34_19101)"/>
<path d="M568.332 23.7737L567.892 293.918L568.332 564.226C568.332 564.714 568.991 565.04 569.871 565.04C570.531 565.04 571.19 564.714 571.19 564.226L571.631 293.918L571.19 23.7737C571.19 23.2852 570.531 22.7966 569.652 22.7966C568.992 22.7966 568.332 23.2852 568.332 23.7737Z" fill="url(#paint116_linear_34_19101)"/>
<path d="M575.37 35.0091L575.151 164.464L574.931 293.918L575.151 423.373L575.37 552.99C575.37 553.315 576.03 553.641 576.689 553.641C577.349 553.641 578.009 553.315 578.009 552.99L578.229 423.373V293.918L578.009 164.464L577.789 35.0091C577.789 34.5206 577.349 34.1949 576.469 34.1949C575.81 34.1949 575.37 34.5206 575.37 35.0091Z" fill="url(#paint117_linear_34_19101)"/>
<path d="M582.402 46.2448L582.182 108.122L581.962 170V293.918V417.836L582.182 479.714L582.402 541.754C582.402 542.08 582.841 542.405 583.501 542.405C584.161 542.405 584.6 542.08 584.6 541.754L584.821 479.714V417.836L585.041 293.918L584.821 170V108.122L584.38 46.2448C584.38 45.7563 583.941 45.5934 583.501 45.5934C582.841 45.5934 582.402 45.7563 582.402 46.2448Z" fill="url(#paint118_linear_34_19101)"/>
<path d="M589.441 57.4808L589.001 116.59V175.7L588.781 293.918L589.001 412.137L589.221 471.246L589.441 530.356C589.441 530.682 589.881 531.007 590.321 531.007C590.76 531.007 591.2 530.682 591.2 530.356L591.42 471.246L591.64 412.137V293.918L591.42 175.7V116.59L591.2 57.4808C591.2 57.1551 590.76 56.8295 590.321 56.8295C589.661 56.8295 589.441 57.1551 589.441 57.4808Z" fill="url(#paint119_linear_34_19101)"/>
<path d="M596.479 68.7163L596.04 124.895V181.236L595.82 293.918L596.04 406.6L596.259 462.779L596.479 519.12C596.479 519.446 596.699 519.609 597.139 519.609C597.579 519.609 597.798 519.446 597.798 519.12L598.239 462.779V406.6L598.458 293.918L598.239 181.236L598.018 124.895L597.798 68.7163C597.798 68.3906 597.359 68.2278 597.139 68.2278C596.699 68.2278 596.479 68.3906 596.479 68.7163Z" fill="url(#paint120_linear_34_19101)"/>
<path d="M603.291 79.9519L603.071 133.362L602.851 186.935V293.918L603.071 400.901V454.474L603.511 507.884C603.511 508.047 603.73 508.21 603.95 508.21C604.39 508.21 604.61 508.047 604.61 507.884L604.83 454.474L605.049 400.901L605.269 293.918L604.83 186.935V133.362L604.39 79.9519C604.39 79.6263 604.17 79.4634 603.95 79.6263C603.51 79.6263 603.291 79.6263 603.291 79.9519Z" fill="url(#paint121_linear_34_19101)"/>
<path d="M610.33 91.0252L610.11 141.83L609.89 192.472L609.67 293.919L609.89 395.202L610.11 446.007L610.549 496.649C610.549 496.812 610.55 496.975 610.99 496.975C611.209 496.975 611.21 496.812 611.21 496.649L611.649 446.007V395.202L611.869 293.919L611.649 192.472L611.43 141.83L611.21 91.0252C611.21 91.0252 610.989 90.8623 610.769 90.8623C610.55 90.8623 610.33 91.0252 610.33 91.0252Z" fill="url(#paint122_linear_34_19101)"/>
<path d="M617.368 102.258L616.929 150.295V198.169L616.709 293.916L616.929 389.663L617.148 437.537L617.368 485.411C617.368 485.519 617.515 485.574 617.808 485.574C617.955 485.574 618.028 485.519 618.028 485.411L618.247 437.537L618.467 389.663L618.687 293.916L618.467 198.169L618.247 150.295L617.808 102.258C617.808 102.15 617.735 102.095 617.588 102.095C617.441 102.095 617.368 102.15 617.368 102.258Z" fill="url(#paint123_linear_34_19101)"/>
<path d="M624.18 113.497L623.96 158.602L623.74 203.708V293.919L623.96 383.967V429.073L624.4 474.178C624.4 474.178 624.473 474.178 624.62 474.178C624.766 474.178 624.839 474.178 624.839 474.178L625.059 429.073L625.279 383.967V293.919L625.059 203.708V158.602L624.62 113.497C624.62 113.497 624.546 113.497 624.4 113.497C624.253 113.497 624.18 113.497 624.18 113.497Z" fill="url(#paint124_linear_34_19101)"/>
<path d="M631.219 124.73L630.779 167.067V209.242L630.559 293.753L630.779 378.428L630.999 420.602L631.438 462.94C631.585 462.94 631.658 462.94 631.658 462.94L631.878 420.602V378.428L632.099 293.753L631.878 209.242L631.658 167.067L631.438 124.73C631.438 124.73 631.366 124.73 631.219 124.73Z" fill="url(#paint125_linear_34_19101)"/>
<path d="M638.029 135.966L637.81 175.535V214.942L637.59 293.754L637.81 372.729L638.029 412.136L638.249 451.542L638.689 412.136V372.729L638.909 293.754L638.469 214.942V175.535L638.029 135.966Z" fill="url(#paint126_linear_34_19101)"/>
<path d="M644.849 147.202L644.628 183.84V220.478V293.755L644.849 367.031V403.669L645.069 440.307L645.289 403.669L645.509 367.031V293.755L645.289 220.478V183.84L644.849 147.202Z" fill="url(#paint127_linear_34_19101)"/>
<path d="M554.261 1.6279L644.849 147.203L557.998 0.813721L554.261 1.6279Z" fill="url(#paint128_linear_34_19101)"/>
<path d="M554.261 66.7607L644.849 179.769L557.778 65.7837L554.261 66.7607Z" fill="url(#paint129_linear_34_19101)"/>
<path d="M554.48 132.059L645.069 212.337L557.778 130.756L554.48 132.059Z" fill="url(#paint130_linear_34_19101)"/>
<path d="M554.699 197.355L645.068 244.903L557.338 195.564L554.699 197.355Z" fill="url(#paint131_linear_34_19101)"/>
<path d="M555.582 262.652L645.072 277.47L556.682 260.372L555.582 262.652Z" fill="url(#paint132_linear_34_19101)"/>
<path d="M556.682 327.623L645.072 310.037L555.582 325.344L556.682 327.623Z" fill="url(#paint133_linear_34_19101)"/>
<path d="M557.338 392.432L645.068 342.604L554.699 390.641L557.338 392.432Z" fill="url(#paint134_linear_34_19101)"/>
<path d="M557.778 457.241L645.069 375.172L554.48 455.939L557.778 457.241Z" fill="url(#paint135_linear_34_19101)"/>
<path d="M557.778 522.213L645.069 407.74L554.261 521.236L557.778 522.213Z" fill="url(#paint136_linear_34_19101)"/>
<path d="M557.998 587.185L645.069 440.307L554.261 586.371L557.998 587.185Z" fill="url(#paint137_linear_34_19101)"/>
<path d="M719.388 1.30017L718.949 19.5378L718.729 37.7754L718.07 74.4135C717.777 98.8388 717.483 123.264 717.19 147.69C716.97 171.952 716.97 196.378 716.751 220.803V293.916V367.192C716.97 391.618 716.97 416.043 717.19 440.305C717.483 464.731 717.777 489.156 718.07 513.581L718.729 550.057L718.949 568.457L719.388 586.695L719.829 568.457L720.269 550.057L720.928 513.581C721.221 489.156 721.441 464.731 721.587 440.305C721.807 416.043 722.027 391.618 722.027 367.192L722.247 293.916L722.027 220.803C722.027 196.378 721.807 171.952 721.587 147.69C721.441 123.264 721.221 98.8388 720.928 74.4135L720.269 37.7754L719.829 19.5378L719.388 1.30017Z" fill="url(#paint138_linear_34_19101)"/>
</g>
<defs>
<linearGradient id="paint0_linear_34_19101" x1="22390.9" y1="442041" x2="22395.9" y2="442041" gradientUnits="userSpaceOnUse">
<stop stop-color="#5EDDC9"/>
<stop offset="1" stop-color="#00B1FB"/>
</linearGradient>
<linearGradient id="paint1_linear_34_19101" x1="20859" y1="426184" x2="20863.4" y2="426184" gradientUnits="userSpaceOnUse">
<stop stop-color="#5EDDC9"/>
<stop offset="1" stop-color="#00B1FB"/>
</linearGradient>
<linearGradient id="paint2_linear_34_19101" x1="19320.5" y1="409981" x2="19324.2" y2="409981" gradientUnits="userSpaceOnUse">
<stop stop-color="#5EDDC9"/>
<stop offset="1" stop-color="#00B1FB"/>
</linearGradient>
<linearGradient id="paint3_linear_34_19101" x1="17810.4" y1="393527" x2="17813.5" y2="393527" gradientUnits="userSpaceOnUse">
<stop stop-color="#5EDDC9"/>
<stop offset="1" stop-color="#00B1FB"/>
</linearGradient>
<linearGradient id="paint4_linear_34_19101" x1="16287.2" y1="376758" x2="16289.8" y2="376758" gradientUnits="userSpaceOnUse">
<stop stop-color="#5EDDC9"/>
<stop offset="1" stop-color="#00B1FB"/>
</linearGradient>
<linearGradient id="paint5_linear_34_19101" x1="14771.3" y1="359683" x2="14773.5" y2="359683" gradientUnits="userSpaceOnUse">
<stop stop-color="#5EDDC9"/>
<stop offset="1" stop-color="#00B1FB"/>
</linearGradient>
<linearGradient id="paint6_linear_34_19101" x1="13276.9" y1="342298" x2="13278.6" y2="342298" gradientUnits="userSpaceOnUse">
<stop stop-color="#5EDDC9"/>
<stop offset="1" stop-color="#00B1FB"/>
</linearGradient>
<linearGradient id="paint7_linear_34_19101" x1="11871.8" y1="324656" x2="11873.1" y2="324656" gradientUnits="userSpaceOnUse">
<stop stop-color="#5EDDC9"/>
<stop offset="1" stop-color="#00B1FB"/>
</linearGradient>
<linearGradient id="paint8_linear_34_19101" x1="11003.6" y1="306683" x2="11004.7" y2="306683" gradientUnits="userSpaceOnUse">
<stop stop-color="#5EDDC9"/>
<stop offset="1" stop-color="#00B1FB"/>
</linearGradient>
<linearGradient id="paint9_linear_34_19101" x1="10255.5" y1="288417" x2="10256.4" y2="288417" gradientUnits="userSpaceOnUse">
<stop stop-color="#5EDDC9"/>
<stop offset="1" stop-color="#00B1FB"/>
</linearGradient>
<linearGradient id="paint10_linear_34_19101" x1="9626.99" y1="269859" x2="9627.82" y2="269859" gradientUnits="userSpaceOnUse">
<stop stop-color="#5EDDC9"/>
<stop offset="1" stop-color="#00B1FB"/>
</linearGradient>
<linearGradient id="paint11_linear_34_19101" x1="2.88464e+06" y1="122044" x2="2.98451e+06" y2="122044" gradientUnits="userSpaceOnUse">
<stop stop-color="#5EDDC9"/>
<stop offset="1" stop-color="#00B1FB"/>
</linearGradient>
<linearGradient id="paint12_linear_34_19101" x1="2.88434e+06" y1="99763.2" x2="2.98419e+06" y2="99763.2" gradientUnits="userSpaceOnUse">
<stop stop-color="#5EDDC9"/>
<stop offset="1" stop-color="#00B1FB"/>
</linearGradient>
<linearGradient id="paint13_linear_34_19101" x1="2.88394e+06" y1="74896.1" x2="2.98374e+06" y2="74896.1" gradientUnits="userSpaceOnUse">
<stop stop-color="#5EDDC9"/>
<stop offset="1" stop-color="#00B1FB"/>
</linearGradient>
<linearGradient id="paint14_linear_34_19101" x1="2.8834e+06" y1="47417.7" x2="2.98322e+06" y2="47417.7" gradientUnits="userSpaceOnUse">
<stop stop-color="#5EDDC9"/>
<stop offset="1" stop-color="#00B1FB"/>
</linearGradient>
<linearGradient id="paint15_linear_34_19101" x1="2.88277e+06" y1="17336.6" x2="2.98253e+06" y2="17336.6" gradientUnits="userSpaceOnUse">
<stop stop-color="#5EDDC9"/>
<stop offset="1" stop-color="#00B1FB"/>
</linearGradient>
<linearGradient id="paint16_linear_34_19101" x1="2.88359e+06" y1="18293.1" x2="2.98338e+06" y2="18293.1" gradientUnits="userSpaceOnUse">
<stop stop-color="#5EDDC9"/>
<stop offset="1" stop-color="#00B1FB"/>
</linearGradient>
<linearGradient id="paint17_linear_34_19101" x1="2.88575e+06" y1="52451.3" x2="2.98575e+06" y2="52451.3" gradientUnits="userSpaceOnUse">
<stop stop-color="#5EDDC9"/>
<stop offset="1" stop-color="#00B1FB"/>
</linearGradient>
<linearGradient id="paint18_linear_34_19101" x1="2.88787e+06" y1="87894.4" x2="2.98795e+06" y2="87894.4" gradientUnits="userSpaceOnUse">
<stop stop-color="#5EDDC9"/>
<stop offset="1" stop-color="#00B1FB"/>
</linearGradient>
<linearGradient id="paint19_linear_34_19101" x1="2.88984e+06" y1="124623" x2="2.99009e+06" y2="124623" gradientUnits="userSpaceOnUse">
<stop stop-color="#5EDDC9"/>
<stop offset="1" stop-color="#00B1FB"/>
</linearGradient>
<linearGradient id="paint20_linear_34_19101" x1="2.89168e+06" y1="162643" x2="2.99208e+06" y2="162643" gradientUnits="userSpaceOnUse">
<stop stop-color="#5EDDC9"/>
<stop offset="1" stop-color="#00B1FB"/>
</linearGradient>
<linearGradient id="paint21_linear_34_19101" x1="26124.9" y1="487806" x2="26132.1" y2="487806" gradientUnits="userSpaceOnUse">
<stop stop-color="#5EDDC9"/>
<stop offset="1" stop-color="#00B1FB"/>
</linearGradient>
<linearGradient id="paint22_linear_34_19101" x1="24624.2" y1="472852" x2="24630.6" y2="472852" gradientUnits="userSpaceOnUse">
<stop stop-color="#5EDDC9"/>
<stop offset="1" stop-color="#00B1FB"/>
</linearGradient>
<linearGradient id="paint23_linear_34_19101" x1="23155" y1="457598" x2="23160.7" y2="457598" gradientUnits="userSpaceOnUse">
<stop stop-color="#5EDDC9"/>
<stop offset="1" stop-color="#00B1FB"/>
</linearGradient>
<linearGradient id="paint24_linear_34_19101" x1="21670" y1="442041" x2="21674.9" y2="442041" gradientUnits="userSpaceOnUse">
<stop stop-color="#5EDDC9"/>
<stop offset="1" stop-color="#00B1FB"/>
</linearGradient>
<linearGradient id="paint25_linear_34_19101" x1="20203" y1="426184" x2="20207.3" y2="426184" gradientUnits="userSpaceOnUse">
<stop stop-color="#5EDDC9"/>
<stop offset="1" stop-color="#00B1FB"/>
</linearGradient>
<linearGradient id="paint26_linear_34_19101" x1="18733.5" y1="409980" x2="18737.2" y2="409980" gradientUnits="userSpaceOnUse">
<stop stop-color="#5EDDC9"/>
<stop offset="1" stop-color="#00B1FB"/>
</linearGradient>
<linearGradient id="paint27_linear_34_19101" x1="17255.3" y1="393527" x2="17258.4" y2="393527" gradientUnits="userSpaceOnUse">
<stop stop-color="#5EDDC9"/>
<stop offset="1" stop-color="#00B1FB"/>
</linearGradient>
<linearGradient id="paint28_linear_34_19101" x1="15808.2" y1="376758" x2="15810.9" y2="376758" gradientUnits="userSpaceOnUse">
<stop stop-color="#5EDDC9"/>
<stop offset="1" stop-color="#00B1FB"/>
</linearGradient>
<linearGradient id="paint29_linear_34_19101" x1="14345.6" y1="359683" x2="14347.7" y2="359683" gradientUnits="userSpaceOnUse">
<stop stop-color="#5EDDC9"/>
<stop offset="1" stop-color="#00B1FB"/>
</linearGradient>
<linearGradient id="paint30_linear_34_19101" x1="12900.9" y1="342298" x2="12902.6" y2="342298" gradientUnits="userSpaceOnUse">
<stop stop-color="#5EDDC9"/>
<stop offset="1" stop-color="#00B1FB"/>
</linearGradient>
<linearGradient id="paint31_linear_34_19101" x1="11467" y1="324656" x2="11468.4" y2="324656" gradientUnits="userSpaceOnUse">
<stop stop-color="#5EDDC9"/>
<stop offset="1" stop-color="#00B1FB"/>
</linearGradient>
<linearGradient id="paint32_linear_34_19101" x1="10009.5" y1="306683" x2="10010.4" y2="306683" gradientUnits="userSpaceOnUse">
<stop stop-color="#5EDDC9"/>
<stop offset="1" stop-color="#00B1FB"/>
</linearGradient>
<linearGradient id="paint33_linear_34_19101" x1="8571.84" y1="288417" x2="8572.46" y2="288417" gradientUnits="userSpaceOnUse">
<stop stop-color="#5EDDC9"/>
<stop offset="1" stop-color="#00B1FB"/>
</linearGradient>
<linearGradient id="paint34_linear_34_19101" x1="7219.25" y1="269859" x2="7219.67" y2="269859" gradientUnits="userSpaceOnUse">
<stop stop-color="#5EDDC9"/>
<stop offset="1" stop-color="#00B1FB"/>
</linearGradient>
<linearGradient id="paint35_linear_34_19101" x1="1.70336e+06" y1="121925" x2="1.7389e+06" y2="121925" gradientUnits="userSpaceOnUse">
<stop stop-color="#5EDDC9"/>
<stop offset="1" stop-color="#00B1FB"/>
</linearGradient>
<linearGradient id="paint36_linear_34_19101" x1="1.70264e+06" y1="99669.9" x2="1.73816e+06" y2="99669.9" gradientUnits="userSpaceOnUse">
<stop stop-color="#5EDDC9"/>
<stop offset="1" stop-color="#00B1FB"/>
</linearGradient>
<linearGradient id="paint37_linear_34_19101" x1="1.70158e+06" y1="74829.5" x2="1.73705e+06" y2="74829.5" gradientUnits="userSpaceOnUse">
<stop stop-color="#5EDDC9"/>
<stop offset="1" stop-color="#00B1FB"/>
</linearGradient>
<linearGradient id="paint38_linear_34_19101" x1="1.70012e+06" y1="47389.9" x2="1.73556e+06" y2="47389.9" gradientUnits="userSpaceOnUse">
<stop stop-color="#5EDDC9"/>
<stop offset="1" stop-color="#00B1FB"/>
</linearGradient>
<linearGradient id="paint39_linear_34_19101" x1="1.69835e+06" y1="17333.4" x2="1.7337e+06" y2="17333.4" gradientUnits="userSpaceOnUse">
<stop stop-color="#5EDDC9"/>
<stop offset="1" stop-color="#00B1FB"/>
</linearGradient>
<linearGradient id="paint40_linear_34_19101" x1="1.69886e+06" y1="18288.1" x2="1.73422e+06" y2="18288.1" gradientUnits="userSpaceOnUse">
<stop stop-color="#5EDDC9"/>
<stop offset="1" stop-color="#00B1FB"/>
</linearGradient>
<linearGradient id="paint41_linear_34_19101" x1="1.70154e+06" y1="52419.2" x2="1.73704e+06" y2="52419.2" gradientUnits="userSpaceOnUse">
<stop stop-color="#5EDDC9"/>
<stop offset="1" stop-color="#00B1FB"/>
</linearGradient>
<linearGradient id="paint42_linear_34_19101" x1="1.70394e+06" y1="87816.7" x2="1.73952e+06" y2="87816.7" gradientUnits="userSpaceOnUse">
<stop stop-color="#5EDDC9"/>
<stop offset="1" stop-color="#00B1FB"/>
</linearGradient>
<linearGradient id="paint43_linear_34_19101" x1="1.70595e+06" y1="124493" x2="1.7416e+06" y2="124493" gradientUnits="userSpaceOnUse">
<stop stop-color="#5EDDC9"/>
<stop offset="1" stop-color="#00B1FB"/>
</linearGradient>
<linearGradient id="paint44_linear_34_19101" x1="1.70756e+06" y1="162465" x2="1.7433e+06" y2="162465" gradientUnits="userSpaceOnUse">
<stop stop-color="#5EDDC9"/>
<stop offset="1" stop-color="#00B1FB"/>
</linearGradient>
<linearGradient id="paint45_linear_34_19101" x1="25184.9" y1="487806" x2="25192.5" y2="487806" gradientUnits="userSpaceOnUse">
<stop stop-color="#5EDDC9"/>
<stop offset="1" stop-color="#00B1FB"/>
</linearGradient>
<linearGradient id="paint46_linear_34_19101" x1="23764.2" y1="472852" x2="23770.6" y2="472852" gradientUnits="userSpaceOnUse">
<stop stop-color="#5EDDC9"/>
<stop offset="1" stop-color="#00B1FB"/>
</linearGradient>
<linearGradient id="paint47_linear_34_19101" x1="22352.5" y1="457598" x2="22358.2" y2="457598" gradientUnits="userSpaceOnUse">
<stop stop-color="#5EDDC9"/>
<stop offset="1" stop-color="#00B1FB"/>
</linearGradient>
<linearGradient id="paint48_linear_34_19101" x1="20950.2" y1="442041" x2="20955.5" y2="442041" gradientUnits="userSpaceOnUse">
<stop stop-color="#5EDDC9"/>
<stop offset="1" stop-color="#00B1FB"/>
</linearGradient>
<linearGradient id="paint49_linear_34_19101" x1="19547.2" y1="426184" x2="19551.5" y2="426184" gradientUnits="userSpaceOnUse">
<stop stop-color="#5EDDC9"/>
<stop offset="1" stop-color="#00B1FB"/>
</linearGradient>
<linearGradient id="paint50_linear_34_19101" x1="18139.7" y1="409980" x2="18143.4" y2="409980" gradientUnits="userSpaceOnUse">
<stop stop-color="#5EDDC9"/>
<stop offset="1" stop-color="#00B1FB"/>
</linearGradient>
<linearGradient id="paint51_linear_34_19101" x1="16727.4" y1="393527" x2="16730.6" y2="393527" gradientUnits="userSpaceOnUse">
<stop stop-color="#5EDDC9"/>
<stop offset="1" stop-color="#00B1FB"/>
</linearGradient>
<linearGradient id="paint52_linear_34_19101" x1="15329.5" y1="376758" x2="15332.2" y2="376758" gradientUnits="userSpaceOnUse">
<stop stop-color="#5EDDC9"/>
<stop offset="1" stop-color="#00B1FB"/>
</linearGradient>
<linearGradient id="paint53_linear_34_19101" x1="13919.8" y1="359683" x2="13922" y2="359683" gradientUnits="userSpaceOnUse">
<stop stop-color="#5EDDC9"/>
<stop offset="1" stop-color="#00B1FB"/>
</linearGradient>
<linearGradient id="paint54_linear_34_19101" x1="12525" y1="342298" x2="12526.8" y2="342298" gradientUnits="userSpaceOnUse">
<stop stop-color="#5EDDC9"/>
<stop offset="1" stop-color="#00B1FB"/>
</linearGradient>
<linearGradient id="paint55_linear_34_19101" x1="11131.4" y1="324656" x2="11132.8" y2="324656" gradientUnits="userSpaceOnUse">
<stop stop-color="#5EDDC9"/>
<stop offset="1" stop-color="#00B1FB"/>
</linearGradient>
<linearGradient id="paint56_linear_34_19101" x1="9731.38" y1="306683" x2="9732.27" y2="306683" gradientUnits="userSpaceOnUse">
<stop stop-color="#5EDDC9"/>
<stop offset="1" stop-color="#00B1FB"/>
</linearGradient>
<linearGradient id="paint57_linear_34_19101" x1="8328.38" y1="288417" x2="8329.13" y2="288417" gradientUnits="userSpaceOnUse">
<stop stop-color="#5EDDC9"/>
<stop offset="1" stop-color="#00B1FB"/>
</linearGradient>
<linearGradient id="paint58_linear_34_19101" x1="6939.08" y1="269859" x2="6939.59" y2="269859" gradientUnits="userSpaceOnUse">
<stop stop-color="#5EDDC9"/>
<stop offset="1" stop-color="#00B1FB"/>
</linearGradient>
<linearGradient id="paint59_linear_34_19101" x1="547443" y1="121561" x2="551190" y2="121561" gradientUnits="userSpaceOnUse">
<stop stop-color="#5EDDC9"/>
<stop offset="1" stop-color="#00B1FB"/>
</linearGradient>
<linearGradient id="paint60_linear_34_19101" x1="547178" y1="99285.3" x2="550924" y2="99285.3" gradientUnits="userSpaceOnUse">
<stop stop-color="#5EDDC9"/>
<stop offset="1" stop-color="#00B1FB"/>
</linearGradient>
<linearGradient id="paint61_linear_34_19101" x1="546488" y1="74472.2" x2="550220" y2="74472.2" gradientUnits="userSpaceOnUse">
<stop stop-color="#5EDDC9"/>
<stop offset="1" stop-color="#00B1FB"/>
</linearGradient>
<linearGradient id="paint62_linear_34_19101" x1="544672" y1="47147.9" x2="548382" y2="47147.9" gradientUnits="userSpaceOnUse">
<stop stop-color="#5EDDC9"/>
<stop offset="1" stop-color="#00B1FB"/>
</linearGradient>
<linearGradient id="paint63_linear_34_19101" x1="540183" y1="17289.9" x2="543827" y2="17289.9" gradientUnits="userSpaceOnUse">
<stop stop-color="#5EDDC9"/>
<stop offset="1" stop-color="#00B1FB"/>
</linearGradient>
<linearGradient id="paint64_linear_34_19101" x1="540408" y1="18239.9" x2="544054" y2="18239.9" gradientUnits="userSpaceOnUse">
<stop stop-color="#5EDDC9"/>
<stop offset="1" stop-color="#00B1FB"/>
</linearGradient>
<linearGradient id="paint65_linear_34_19101" x1="545162" y1="52141.5" x2="548876" y2="52141.5" gradientUnits="userSpaceOnUse">
<stop stop-color="#5EDDC9"/>
<stop offset="1" stop-color="#00B1FB"/>
</linearGradient>
<linearGradient id="paint66_linear_34_19101" x1="547248" y1="87369.5" x2="550994" y2="87369.5" gradientUnits="userSpaceOnUse">
<stop stop-color="#5EDDC9"/>
<stop offset="1" stop-color="#00B1FB"/>
</linearGradient>
<linearGradient id="paint67_linear_34_19101" x1="548230" y1="123972" x2="551992" y2="123972" gradientUnits="userSpaceOnUse">
<stop stop-color="#5EDDC9"/>
<stop offset="1" stop-color="#00B1FB"/>
</linearGradient>
<linearGradient id="paint68_linear_34_19101" x1="548799" y1="161924" x2="552565" y2="161924" gradientUnits="userSpaceOnUse">
<stop stop-color="#5EDDC9"/>
<stop offset="1" stop-color="#00B1FB"/>
</linearGradient>
<linearGradient id="paint69_linear_34_19101" x1="18790.7" y1="442041" x2="18795.7" y2="442041" gradientUnits="userSpaceOnUse">
<stop stop-color="#5EDDC9"/>
<stop offset="1" stop-color="#00B1FB"/>
</linearGradient>
<linearGradient id="paint70_linear_34_19101" x1="17581.2" y1="426184" x2="17585.6" y2="426184" gradientUnits="userSpaceOnUse">
<stop stop-color="#5EDDC9"/>
<stop offset="1" stop-color="#00B1FB"/>
</linearGradient>
<linearGradient id="paint71_linear_34_19101" x1="16351.8" y1="409981" x2="16355.5" y2="409981" gradientUnits="userSpaceOnUse">
<stop stop-color="#5EDDC9"/>
<stop offset="1" stop-color="#00B1FB"/>
</linearGradient>
<linearGradient id="paint72_linear_34_19101" x1="15127.5" y1="393527" x2="15130.7" y2="393527" gradientUnits="userSpaceOnUse">
<stop stop-color="#5EDDC9"/>
<stop offset="1" stop-color="#00B1FB"/>
</linearGradient>
<linearGradient id="paint73_linear_34_19101" x1="13889" y1="376758" x2="13891.7" y2="376758" gradientUnits="userSpaceOnUse">
<stop stop-color="#5EDDC9"/>
<stop offset="1" stop-color="#00B1FB"/>
</linearGradient>
<linearGradient id="paint74_linear_34_19101" x1="12636.9" y1="359683" x2="12639" y2="359683" gradientUnits="userSpaceOnUse">
<stop stop-color="#5EDDC9"/>
<stop offset="1" stop-color="#00B1FB"/>
</linearGradient>
<linearGradient id="paint75_linear_34_19101" x1="11390" y1="342298" x2="11391.7" y2="342298" gradientUnits="userSpaceOnUse">
<stop stop-color="#5EDDC9"/>
<stop offset="1" stop-color="#00B1FB"/>
</linearGradient>
<linearGradient id="paint76_linear_34_19101" x1="10217.7" y1="324656" x2="10219.1" y2="324656" gradientUnits="userSpaceOnUse">
<stop stop-color="#5EDDC9"/>
<stop offset="1" stop-color="#00B1FB"/>
</linearGradient>
<linearGradient id="paint77_linear_34_19101" x1="9522.81" y1="306683" x2="9523.92" y2="306683" gradientUnits="userSpaceOnUse">
<stop stop-color="#5EDDC9"/>
<stop offset="1" stop-color="#00B1FB"/>
</linearGradient>
<linearGradient id="paint78_linear_34_19101" x1="8933.65" y1="288417" x2="8934.69" y2="288417" gradientUnits="userSpaceOnUse">
<stop stop-color="#5EDDC9"/>
<stop offset="1" stop-color="#00B1FB"/>
</linearGradient>
<linearGradient id="paint79_linear_34_19101" x1="8461.73" y1="269859" x2="8462.7" y2="269859" gradientUnits="userSpaceOnUse">
<stop stop-color="#5EDDC9"/>
<stop offset="1" stop-color="#00B1FB"/>
</linearGradient>
<linearGradient id="paint80_linear_34_19101" x1="2.631e+06" y1="122044" x2="2.73092e+06" y2="122044" gradientUnits="userSpaceOnUse">
<stop stop-color="#5EDDC9"/>
<stop offset="1" stop-color="#00B1FB"/>
</linearGradient>
<linearGradient id="paint81_linear_34_19101" x1="2.63082e+06" y1="99763.2" x2="2.73067e+06" y2="99763.2" gradientUnits="userSpaceOnUse">
<stop stop-color="#5EDDC9"/>
<stop offset="1" stop-color="#00B1FB"/>
</linearGradient>
<linearGradient id="paint82_linear_34_19101" x1="2.6305e+06" y1="74896.1" x2="2.73035e+06" y2="74896.1" gradientUnits="userSpaceOnUse">
<stop stop-color="#5EDDC9"/>
<stop offset="1" stop-color="#00B1FB"/>
</linearGradient>
<linearGradient id="paint83_linear_34_19101" x1="2.63009e+06" y1="47417.7" x2="2.72991e+06" y2="47417.7" gradientUnits="userSpaceOnUse">
<stop stop-color="#5EDDC9"/>
<stop offset="1" stop-color="#00B1FB"/>
</linearGradient>
<linearGradient id="paint84_linear_34_19101" x1="2.62961e+06" y1="17336.6" x2="2.72937e+06" y2="17336.6" gradientUnits="userSpaceOnUse">
<stop stop-color="#5EDDC9"/>
<stop offset="1" stop-color="#00B1FB"/>
</linearGradient>
<linearGradient id="paint85_linear_34_19101" x1="2.63036e+06" y1="18293.1" x2="2.7302e+06" y2="18293.1" gradientUnits="userSpaceOnUse">
<stop stop-color="#5EDDC9"/>
<stop offset="1" stop-color="#00B1FB"/>
</linearGradient>
<linearGradient id="paint86_linear_34_19101" x1="2.63232e+06" y1="52451.3" x2="2.73228e+06" y2="52451.3" gradientUnits="userSpaceOnUse">
<stop stop-color="#5EDDC9"/>
<stop offset="1" stop-color="#00B1FB"/>
</linearGradient>
<linearGradient id="paint87_linear_34_19101" x1="2.63422e+06" y1="87894.4" x2="2.73434e+06" y2="87894.4" gradientUnits="userSpaceOnUse">
<stop stop-color="#5EDDC9"/>
<stop offset="1" stop-color="#00B1FB"/>
</linearGradient>
<linearGradient id="paint88_linear_34_19101" x1="2.63601e+06" y1="124623" x2="2.7363e+06" y2="124623" gradientUnits="userSpaceOnUse">
<stop stop-color="#5EDDC9"/>
<stop offset="1" stop-color="#00B1FB"/>
</linearGradient>
<linearGradient id="paint89_linear_34_19101" x1="2.63768e+06" y1="162643" x2="2.73808e+06" y2="162643" gradientUnits="userSpaceOnUse">
<stop stop-color="#5EDDC9"/>
<stop offset="1" stop-color="#00B1FB"/>
</linearGradient>
<linearGradient id="paint90_linear_34_19101" x1="23327.8" y1="487806" x2="23335.4" y2="487806" gradientUnits="userSpaceOnUse">
<stop stop-color="#5EDDC9"/>
<stop offset="1" stop-color="#00B1FB"/>
</linearGradient>
<linearGradient id="paint91_linear_34_19101" x1="22059.2" y1="472852" x2="22065.6" y2="472852" gradientUnits="userSpaceOnUse">
<stop stop-color="#5EDDC9"/>
<stop offset="1" stop-color="#00B1FB"/>
</linearGradient>
<linearGradient id="paint92_linear_34_19101" x1="20793.9" y1="457598" x2="20799.6" y2="457598" gradientUnits="userSpaceOnUse">
<stop stop-color="#5EDDC9"/>
<stop offset="1" stop-color="#00B1FB"/>
</linearGradient>
<linearGradient id="paint93_linear_34_19101" x1="19511.3" y1="442041" x2="19516.3" y2="442041" gradientUnits="userSpaceOnUse">
<stop stop-color="#5EDDC9"/>
<stop offset="1" stop-color="#00B1FB"/>
</linearGradient>
<linearGradient id="paint94_linear_34_19101" x1="18237" y1="426184" x2="18241.3" y2="426184" gradientUnits="userSpaceOnUse">
<stop stop-color="#5EDDC9"/>
<stop offset="1" stop-color="#00B1FB"/>
</linearGradient>
<linearGradient id="paint95_linear_34_19101" x1="16945.4" y1="409981" x2="16949.1" y2="409981" gradientUnits="userSpaceOnUse">
<stop stop-color="#5EDDC9"/>
<stop offset="1" stop-color="#00B1FB"/>
</linearGradient>
<linearGradient id="paint96_linear_34_19101" x1="15668.3" y1="393527" x2="15671.5" y2="393527" gradientUnits="userSpaceOnUse">
<stop stop-color="#5EDDC9"/>
<stop offset="1" stop-color="#00B1FB"/>
</linearGradient>
<linearGradient id="paint97_linear_34_19101" x1="14367.7" y1="376758" x2="14370.4" y2="376758" gradientUnits="userSpaceOnUse">
<stop stop-color="#5EDDC9"/>
<stop offset="1" stop-color="#00B1FB"/>
</linearGradient>
<linearGradient id="paint98_linear_34_19101" x1="13062.6" y1="359683" x2="13064.8" y2="359683" gradientUnits="userSpaceOnUse">
<stop stop-color="#5EDDC9"/>
<stop offset="1" stop-color="#00B1FB"/>
</linearGradient>
<linearGradient id="paint99_linear_34_19101" x1="11765.8" y1="342298" x2="11767.6" y2="342298" gradientUnits="userSpaceOnUse">
<stop stop-color="#5EDDC9"/>
<stop offset="1" stop-color="#00B1FB"/>
</linearGradient>
<linearGradient id="paint100_linear_34_19101" x1="10464.6" y1="324656" x2="10465.9" y2="324656" gradientUnits="userSpaceOnUse">
<stop stop-color="#5EDDC9"/>
<stop offset="1" stop-color="#00B1FB"/>
</linearGradient>
<linearGradient id="paint101_linear_34_19101" x1="9152.04" y1="306683" x2="9153.08" y2="306683" gradientUnits="userSpaceOnUse">
<stop stop-color="#5EDDC9"/>
<stop offset="1" stop-color="#00B1FB"/>
</linearGradient>
<linearGradient id="paint102_linear_34_19101" x1="7828.86" y1="288417" x2="7829.61" y2="288417" gradientUnits="userSpaceOnUse">
<stop stop-color="#5EDDC9"/>
<stop offset="1" stop-color="#00B1FB"/>
</linearGradient>
<linearGradient id="paint103_linear_34_19101" x1="6578.92" y1="269859" x2="6579.44" y2="269859" gradientUnits="userSpaceOnUse">
<stop stop-color="#5EDDC9"/>
<stop offset="1" stop-color="#00B1FB"/>
</linearGradient>
<linearGradient id="paint104_linear_34_19101" x1="1.61209e+06" y1="121925" x2="1.64766e+06" y2="121925" gradientUnits="userSpaceOnUse">
<stop stop-color="#5EDDC9"/>
<stop offset="1" stop-color="#00B1FB"/>
</linearGradient>
<linearGradient id="paint105_linear_34_19101" x1="1.61146e+06" y1="99669.9" x2="1.64698e+06" y2="99669.9" gradientUnits="userSpaceOnUse">
<stop stop-color="#5EDDC9"/>
<stop offset="1" stop-color="#00B1FB"/>
</linearGradient>
<linearGradient id="paint106_linear_34_19101" x1="1.6105e+06" y1="74829.5" x2="1.646e+06" y2="74829.5" gradientUnits="userSpaceOnUse">
<stop stop-color="#5EDDC9"/>
<stop offset="1" stop-color="#00B1FB"/>
</linearGradient>
<linearGradient id="paint107_linear_34_19101" x1="1.60918e+06" y1="47389.9" x2="1.6446e+06" y2="47389.9" gradientUnits="userSpaceOnUse">
<stop stop-color="#5EDDC9"/>
<stop offset="1" stop-color="#00B1FB"/>
</linearGradient>
<linearGradient id="paint108_linear_34_19101" x1="1.60757e+06" y1="17333.4" x2="1.64292e+06" y2="17333.4" gradientUnits="userSpaceOnUse">
<stop stop-color="#5EDDC9"/>
<stop offset="1" stop-color="#00B1FB"/>
</linearGradient>
<linearGradient id="paint109_linear_34_19101" x1="1.60805e+06" y1="18288.1" x2="1.64341e+06" y2="18288.1" gradientUnits="userSpaceOnUse">
<stop stop-color="#5EDDC9"/>
<stop offset="1" stop-color="#00B1FB"/>
</linearGradient>
<linearGradient id="paint110_linear_34_19101" x1="1.61055e+06" y1="52419.2" x2="1.64603e+06" y2="52419.2" gradientUnits="userSpaceOnUse">
<stop stop-color="#5EDDC9"/>
<stop offset="1" stop-color="#00B1FB"/>
</linearGradient>
<linearGradient id="paint111_linear_34_19101" x1="1.61276e+06" y1="87816.7" x2="1.64837e+06" y2="87816.7" gradientUnits="userSpaceOnUse">
<stop stop-color="#5EDDC9"/>
<stop offset="1" stop-color="#00B1FB"/>
</linearGradient>
<linearGradient id="paint112_linear_34_19101" x1="1.61464e+06" y1="124493" x2="1.65031e+06" y2="124493" gradientUnits="userSpaceOnUse">
<stop stop-color="#5EDDC9"/>
<stop offset="1" stop-color="#00B1FB"/>
</linearGradient>
<linearGradient id="paint113_linear_34_19101" x1="1.61617e+06" y1="162465" x2="1.65191e+06" y2="162465" gradientUnits="userSpaceOnUse">
<stop stop-color="#5EDDC9"/>
<stop offset="1" stop-color="#00B1FB"/>
</linearGradient>
<linearGradient id="paint114_linear_34_19101" x1="24261.1" y1="487806" x2="24268.4" y2="487806" gradientUnits="userSpaceOnUse">
<stop stop-color="#5EDDC9"/>
<stop offset="1" stop-color="#00B1FB"/>
</linearGradient>
<linearGradient id="paint115_linear_34_19101" x1="22919.7" y1="472852" x2="22926.1" y2="472852" gradientUnits="userSpaceOnUse">
<stop stop-color="#5EDDC9"/>
<stop offset="1" stop-color="#00B1FB"/>
</linearGradient>
<linearGradient id="paint116_linear_34_19101" x1="21571.2" y1="457598" x2="21577.2" y2="457598" gradientUnits="userSpaceOnUse">
<stop stop-color="#5EDDC9"/>
<stop offset="1" stop-color="#00B1FB"/>
</linearGradient>
<linearGradient id="paint117_linear_34_19101" x1="20232.3" y1="442041" x2="20237.3" y2="442041" gradientUnits="userSpaceOnUse">
<stop stop-color="#5EDDC9"/>
<stop offset="1" stop-color="#00B1FB"/>
</linearGradient>
<linearGradient id="paint118_linear_34_19101" x1="18899.5" y1="426184" x2="18903.8" y2="426184" gradientUnits="userSpaceOnUse">
<stop stop-color="#5EDDC9"/>
<stop offset="1" stop-color="#00B1FB"/>
</linearGradient>
<linearGradient id="paint119_linear_34_19101" x1="17545.4" y1="409981" x2="17549.2" y2="409981" gradientUnits="userSpaceOnUse">
<stop stop-color="#5EDDC9"/>
<stop offset="1" stop-color="#00B1FB"/>
</linearGradient>
<linearGradient id="paint120_linear_34_19101" x1="16183.9" y1="393527" x2="16187.1" y2="393527" gradientUnits="userSpaceOnUse">
<stop stop-color="#5EDDC9"/>
<stop offset="1" stop-color="#00B1FB"/>
</linearGradient>
<linearGradient id="paint121_linear_34_19101" x1="14846.7" y1="376758" x2="14849.3" y2="376758" gradientUnits="userSpaceOnUse">
<stop stop-color="#5EDDC9"/>
<stop offset="1" stop-color="#00B1FB"/>
</linearGradient>
<linearGradient id="paint122_linear_34_19101" x1="13488.3" y1="359683" x2="13490.5" y2="359683" gradientUnits="userSpaceOnUse">
<stop stop-color="#5EDDC9"/>
<stop offset="1" stop-color="#00B1FB"/>
</linearGradient>
<linearGradient id="paint123_linear_34_19101" x1="12141.9" y1="342298" x2="12143.6" y2="342298" gradientUnits="userSpaceOnUse">
<stop stop-color="#5EDDC9"/>
<stop offset="1" stop-color="#00B1FB"/>
</linearGradient>
<linearGradient id="paint124_linear_34_19101" x1="10799.3" y1="324656" x2="10800.5" y2="324656" gradientUnits="userSpaceOnUse">
<stop stop-color="#5EDDC9"/>
<stop offset="1" stop-color="#00B1FB"/>
</linearGradient>
<linearGradient id="paint125_linear_34_19101" x1="9437.5" y1="306683" x2="9438.53" y2="306683" gradientUnits="userSpaceOnUse">
<stop stop-color="#5EDDC9"/>
<stop offset="1" stop-color="#00B1FB"/>
</linearGradient>
<linearGradient id="paint126_linear_34_19101" x1="8073.55" y1="288417" x2="8074.3" y2="288417" gradientUnits="userSpaceOnUse">
<stop stop-color="#5EDDC9"/>
<stop offset="1" stop-color="#00B1FB"/>
</linearGradient>
<linearGradient id="paint127_linear_34_19101" x1="6727.21" y1="269859" x2="6727.61" y2="269859" gradientUnits="userSpaceOnUse">
<stop stop-color="#5EDDC9"/>
<stop offset="1" stop-color="#00B1FB"/>
</linearGradient>
<linearGradient id="paint128_linear_34_19101" x1="537311" y1="121561" x2="541049" y2="121561" gradientUnits="userSpaceOnUse">
<stop stop-color="#5EDDC9"/>
<stop offset="1" stop-color="#00B1FB"/>
</linearGradient>
<linearGradient id="paint129_linear_34_19101" x1="537051" y1="99285.3" x2="540787" y2="99285.3" gradientUnits="userSpaceOnUse">
<stop stop-color="#5EDDC9"/>
<stop offset="1" stop-color="#00B1FB"/>
</linearGradient>
<linearGradient id="paint130_linear_34_19101" x1="536390" y1="74472.2" x2="540122" y2="74472.2" gradientUnits="userSpaceOnUse">
<stop stop-color="#5EDDC9"/>
<stop offset="1" stop-color="#00B1FB"/>
</linearGradient>
<linearGradient id="paint131_linear_34_19101" x1="534616" y1="47147.9" x2="538327" y2="47147.9" gradientUnits="userSpaceOnUse">
<stop stop-color="#5EDDC9"/>
<stop offset="1" stop-color="#00B1FB"/>
</linearGradient>
<linearGradient id="paint132_linear_34_19101" x1="530245" y1="17289.9" x2="533889" y2="17289.9" gradientUnits="userSpaceOnUse">
<stop stop-color="#5EDDC9"/>
<stop offset="1" stop-color="#00B1FB"/>
</linearGradient>
<linearGradient id="paint133_linear_34_19101" x1="530466" y1="18239.9" x2="534112" y2="18239.9" gradientUnits="userSpaceOnUse">
<stop stop-color="#5EDDC9"/>
<stop offset="1" stop-color="#00B1FB"/>
</linearGradient>
<linearGradient id="paint134_linear_34_19101" x1="535097" y1="52141.5" x2="538811" y2="52141.5" gradientUnits="userSpaceOnUse">
<stop stop-color="#5EDDC9"/>
<stop offset="1" stop-color="#00B1FB"/>
</linearGradient>
<linearGradient id="paint135_linear_34_19101" x1="537144" y1="87369.5" x2="540882" y2="87369.5" gradientUnits="userSpaceOnUse">
<stop stop-color="#5EDDC9"/>
<stop offset="1" stop-color="#00B1FB"/>
</linearGradient>
<linearGradient id="paint136_linear_34_19101" x1="538092" y1="123972" x2="541845" y2="123972" gradientUnits="userSpaceOnUse">
<stop stop-color="#5EDDC9"/>
<stop offset="1" stop-color="#00B1FB"/>
</linearGradient>
<linearGradient id="paint137_linear_34_19101" x1="538652" y1="161924" x2="542409" y2="161924" gradientUnits="userSpaceOnUse">
<stop stop-color="#5EDDC9"/>
<stop offset="1" stop-color="#00B1FB"/>
</linearGradient>
<linearGradient id="paint138_linear_34_19101" x1="34322.8" y1="486283" x2="34336.8" y2="486283" gradientUnits="userSpaceOnUse">
<stop stop-color="#5EDDC9"/>
<stop offset="1" stop-color="#00B1FB"/>
</linearGradient>
</defs>
</svg>
