<svg width="63" height="74" viewBox="0 0 63 74" fill="none" xmlns="http://www.w3.org/2000/svg">
<path d="M25.3529 9.54055C25.3529 13.068 25.0462 16.1354 24.4327 18.7426H15.2306C15.8441 21.1965 16.1508 24.2639 16.1508 27.9447C16.1508 31.4722 15.8441 34.5396 15.2306 37.1468H24.4327C25.0462 39.6007 25.3529 42.6681 25.3529 46.3489C25.3529 49.8764 25.0462 52.9437 24.4327 55.551C25.0462 58.0049 25.3529 61.0722 25.3529 64.7531C25.3529 68.2805 25.0462 71.3479 24.4327 73.9552H1.42746C0.813991 71.3479 0.507255 68.2805 0.507255 64.7531C0.507255 61.0722 0.813991 58.0049 1.42746 55.551C0.813991 52.9437 0.507255 49.8764 0.507255 46.3489C0.507255 42.6681 0.813991 39.6007 1.42746 37.1468C0.813991 34.5396 0.507255 31.4722 0.507255 27.9447C0.507255 24.2639 0.813991 21.1965 1.42746 18.7426H10.6296C10.0161 16.1354 9.70935 13.068 9.70935 9.54055C9.70935 5.8597 10.0161 2.79234 10.6296 0.33845H24.4327C25.0462 2.79234 25.3529 5.8597 25.3529 9.54055ZM61.2411 37.1468C61.8545 39.6007 62.1613 42.6681 62.1613 46.3489C62.1613 49.8764 61.8545 52.9437 61.2411 55.551C61.8545 58.0049 62.1613 61.0722 62.1613 64.7531C62.1613 68.2805 61.8545 71.3479 61.2411 73.9552H38.2358C37.6224 71.3479 37.3156 68.2805 37.3156 64.7531C37.3156 61.0722 37.6224 58.0049 38.2358 55.551C37.6224 52.9437 37.3156 49.8764 37.3156 46.3489C37.3156 42.6681 37.6224 39.6007 38.2358 37.1468C37.6224 34.5396 37.3156 31.4722 37.3156 27.9447C37.3156 24.2639 37.6224 21.1965 38.2358 18.7426H47.4379C46.8244 16.1354 46.5177 13.068 46.5177 9.54055C46.5177 5.8597 46.8244 2.79234 47.4379 0.33845H61.2411C61.8545 2.79234 62.1613 5.8597 62.1613 9.54055C62.1613 13.068 61.8545 16.1354 61.2411 18.7426H52.039C52.6524 21.1965 52.9592 24.2639 52.9592 27.9447C52.9592 31.4722 52.6524 34.5396 52.039 37.1468H61.2411Z" fill="white"/>
</svg>
