<svg xmlns="http://www.w3.org/2000/svg" width="49" height="49" viewBox="0 0 49 49" fill="none">
  <path fill-rule="evenodd" clip-rule="evenodd" d="M39.6853 8.23918C40.1885 8.0274 40.7392 7.95436 41.2802 8.02766C41.8212 8.10095 42.3327 8.31791 42.7613 8.65595C43.19 8.99399 43.5203 9.44075 43.7177 9.94972C43.9151 10.4587 43.9725 11.0113 43.8839 11.55L39.2659 39.5615C38.8179 42.2635 35.8533 43.813 33.3753 42.4671C31.3024 41.3411 28.2238 39.6063 25.4546 37.7961C24.07 36.89 19.8287 33.9885 20.3499 31.9238C20.7979 30.1585 27.9244 23.5247 31.9968 19.5806C33.5952 18.0311 32.8662 17.1372 30.9787 18.5625C26.2914 22.1014 18.7658 27.483 16.2776 28.9979C14.0826 30.3336 12.9383 30.5616 11.57 30.3336C9.07365 29.9182 6.75853 29.2748 4.86897 28.4909C2.31562 27.4321 2.43983 23.9217 4.86693 22.8996L39.6853 8.23918Z" fill="#CBCBCB"/>
</svg>