<svg width="521" height="228" viewBox="0 0 521 228" fill="none" xmlns="http://www.w3.org/2000/svg">
<path d="M15.4277 99.7328C14.023 99.7328 13.0866 99.4987 12.6184 99.0305C12.1501 98.5622 11.916 97.6258 11.916 96.2211V75.1508C11.916 73.3715 12.2438 71.9668 12.8993 70.9367C13.6485 69.9066 14.7254 68.8765 16.1301 67.8464L72.5985 29.7794C74.1905 28.7493 74.7992 27.8596 74.4246 27.1105C74.05 26.3613 73.1604 25.9867 71.7557 25.9867H56.866C55.0867 25.9867 53.7757 26.174 52.9329 26.5486C52.0901 26.8295 51.06 27.3446 49.8426 28.0937L17.3943 50.0069C16.5515 50.5687 15.7555 50.8497 15.0063 50.8497C13.4128 50.8497 11.9808 49.5585 11.9199 47.9662C11.9173 47.8983 11.916 47.8294 11.916 47.7594V27.6723C11.916 25.8931 12.197 24.4884 12.7588 23.4583C13.4143 22.4282 14.5381 21.3981 16.1301 20.368L40.993 3.51171C42.3041 2.66891 43.4747 2.10703 44.5048 1.82609C45.6285 1.54516 46.8927 1.40469 48.2974 1.40469H116.565C117.97 1.40469 118.906 1.6388 119.375 2.10703C119.843 2.57526 120.077 3.51172 120.077 4.91641V23.7392C120.077 25.5185 119.702 26.97 118.953 28.0937C118.204 29.1239 117.174 30.1071 115.863 31.0436L56.1637 71.3581C54.8526 72.2946 54.2907 73.1842 54.478 74.027C54.759 74.7762 55.6018 75.1508 57.0065 75.1508H116.565C117.97 75.1508 118.906 75.3849 119.375 75.8531C119.843 76.3214 120.077 77.2578 120.077 78.6625V96.2211C120.077 97.6258 119.843 98.5622 119.375 99.0305C118.906 99.4987 117.97 99.7328 116.565 99.7328H15.4277Z" fill="white"/>
<path d="M146.02 99.7328C144.615 99.7328 143.679 99.4987 143.21 99.0305C142.742 98.5622 142.508 97.6258 142.508 96.2211V75.1508C142.508 72.3414 142.929 69.532 143.772 66.7226C144.709 63.9133 145.879 61.2444 147.284 58.7159C148.782 56.1875 150.421 53.8463 152.2 51.6925C154.073 49.5386 155.946 47.7594 157.819 46.3547C159.692 44.95 162.08 44.2477 164.983 44.2477H224.401C226.181 44.2477 227.351 44.7159 227.913 45.6523C228.475 46.5888 228.522 47.7594 228.053 49.1641C227.023 52.0671 225.525 55.0637 223.558 58.1541C221.686 61.1507 219.157 64.0069 215.973 66.7226C214.288 68.1273 211.946 68.8297 208.95 68.8297H176.642C175.05 68.8297 173.833 68.9233 172.99 69.1106C172.147 69.2979 171.491 69.9534 171.023 71.0772L170.602 72.2009C170.227 73.231 170.227 73.9802 170.602 74.4484C171.07 74.9167 172.006 75.1508 173.411 75.1508H247.157C248.562 75.1508 249.498 75.3849 249.967 75.8531C250.435 76.3214 250.669 77.2578 250.669 78.6625V96.2211C250.669 97.6258 250.435 98.5622 249.967 99.0305C249.498 99.4987 248.562 99.7328 247.157 99.7328H146.02ZM146.02 25.9867C144.615 25.9867 143.679 25.7526 143.21 25.2844C142.742 24.8161 142.508 23.8797 142.508 22.475V4.91641C142.508 3.51172 142.742 2.57526 143.21 2.10703C143.679 1.6388 144.615 1.40469 146.02 1.40469H209.652C211.057 1.40469 212.321 1.54516 213.445 1.82609C214.568 2.10703 215.739 2.66891 216.956 3.51171L246.455 23.3178C248.047 24.3479 249.124 25.378 249.686 26.4081C250.341 27.4382 250.669 28.8429 250.669 30.6222V51.552C250.669 52.5821 250.388 53.3781 249.826 53.94C249.264 54.4082 248.562 54.6423 247.719 54.6423C246.876 54.6423 246.034 54.3614 245.191 53.7995L210.074 30.2008C208.762 29.2643 207.311 28.3279 205.719 27.3914C204.221 26.4549 202.582 25.9867 200.803 25.9867H146.02Z" fill="white"/>
<path d="M276.612 99.7328C275.207 99.7328 274.271 99.4987 273.802 99.0305C273.334 98.5622 273.1 97.6258 273.1 96.2211V4.91641C273.1 3.51172 273.334 2.57526 273.802 2.10703C274.271 1.6388 275.207 1.40469 276.612 1.40469H358.786C361.783 1.40469 364.171 2.10703 365.95 3.51171C367.823 5.01005 369.649 6.83615 371.428 8.99C373.301 11.0502 374.94 13.3445 376.345 15.873C377.843 18.4014 379.013 21.0703 379.856 23.8797C380.793 26.6891 381.261 29.4984 381.261 32.3078V61.1039C381.261 62.5086 381.027 63.445 380.559 63.9133C380.09 64.3815 379.154 64.6156 377.749 64.6156H358.084C356.679 64.6156 355.742 64.3815 355.274 63.9133C354.806 63.445 354.572 62.5086 354.572 61.1039V40.7359C354.572 38.4884 354.104 36.5687 353.167 34.9767L350.217 30.2008C348.438 27.3914 345.91 25.9867 342.632 25.9867H303.301C301.896 25.9867 300.96 26.2208 300.491 26.6891C300.023 27.1573 299.789 28.0937 299.789 29.4984V35.8195C299.789 37.2242 299.93 38.6289 300.211 40.0336C300.491 41.4383 301.381 42.6557 302.879 43.6858L379.856 95.5187C380.98 96.2679 381.401 97.1575 381.121 98.1876C380.84 99.2178 380.184 99.7328 379.154 99.7328H345.02C342.304 99.7328 339.87 99.0305 337.716 97.6258L303.582 74.5889C302.364 73.8397 301.522 73.4651 301.053 73.4651C300.211 73.4651 299.789 74.1675 299.789 75.5722V96.2211C299.789 97.6258 299.555 98.5622 299.087 99.0305C298.619 99.4987 297.682 99.7328 296.277 99.7328H276.612Z" fill="white"/>
<path d="M423.077 91.5856C416.334 87.0906 410.95 81.3314 406.923 74.308C402.896 67.2845 400.883 59.3715 400.883 50.5687C400.883 43.1707 402.287 36.3814 405.097 30.2008C408 24.0202 411.886 18.6823 416.756 14.1873C421.719 9.69235 427.478 6.22745 434.033 3.79266C440.589 1.26422 447.565 0 454.963 0C462.361 0 469.338 1.26422 475.893 3.79266C482.448 6.22745 488.161 9.69235 493.03 14.1873C497.993 18.6823 501.88 24.0202 504.689 30.2008C507.592 36.3814 509.044 43.1707 509.044 50.5687C509.044 57.6858 507.686 64.2879 504.97 70.3748C502.348 76.3682 498.743 81.6123 494.154 86.1073C493.686 86.5756 493.217 86.997 492.749 87.3716C492.281 87.7461 491.766 87.9334 491.204 87.9334C490.642 87.9334 489.94 87.6525 489.097 87.0906L473.926 76.8364C472.709 75.9936 472.1 75.104 472.1 74.1675C472.1 73.1374 472.475 72.2478 473.224 71.4986C475.659 69.0638 477.766 66.114 479.545 62.6491C481.418 59.1842 482.355 55.1574 482.355 50.5687C482.355 46.7293 481.652 43.2175 480.248 40.0336C478.843 36.8496 476.923 34.1339 474.488 31.8864C472.054 29.5453 469.151 27.766 465.779 26.5486C462.408 25.2375 458.803 24.582 454.963 24.582C451.124 24.582 447.518 25.2375 444.147 26.5486C440.869 27.766 437.966 29.5453 435.438 31.8864C433.003 34.1339 431.083 36.8496 429.679 40.0336C428.274 43.2175 427.572 46.7293 427.572 50.5687C427.572 55.251 428.602 59.4183 430.662 63.0705C432.816 66.629 435.625 69.5788 439.09 71.92L474.067 95.5187C475.191 96.2679 475.612 97.1575 475.331 98.1876C475.05 99.2178 474.395 99.7328 473.365 99.7328H439.371C436.562 99.7328 434.127 99.0305 432.067 97.6258L423.077 91.5856Z" fill="white"/>
<path d="M455.586 17.8095C473.826 17.8096 488.506 32.0149 488.506 49.4101C488.506 66.8053 473.826 81.0107 455.586 81.0107C437.347 81.0107 422.667 66.8053 422.666 49.4101C422.666 32.0149 437.347 17.8095 455.586 17.8095Z" stroke="white" stroke-width="3.13521"/>
<ellipse cx="455.064" cy="49.9125" rx="14.1084" ry="13.5687" fill="white"/>
<path d="M97.0678 212.393C95.6545 212.393 94.7123 212.158 94.2411 211.687C93.77 211.216 93.5345 210.273 93.5345 208.86V116.994C93.5345 115.581 93.77 114.639 94.2411 114.168C94.7123 113.697 95.6545 113.461 97.0678 113.461H116.854C118.268 113.461 119.21 113.697 119.681 114.168C120.152 114.639 120.388 115.581 120.388 116.994V208.86C120.388 210.273 120.152 211.216 119.681 211.687C119.21 212.158 118.268 212.393 116.854 212.393H97.0678ZM15.0952 212.393C13.6819 212.393 12.7397 212.158 12.2686 211.687C11.7975 211.216 11.5619 210.273 11.5619 208.86V116.994C11.5619 115.581 11.7975 114.639 12.2686 114.168C12.7397 113.697 13.6819 113.461 15.0952 113.461H34.8817C36.295 113.461 37.2372 113.697 37.7083 114.168C38.1794 114.639 38.415 115.581 38.415 116.994V148.794C38.415 150.207 38.6505 151.15 39.1217 151.621C39.5928 152.092 40.535 152.327 41.9483 152.327H68.8014C71.8165 152.327 74.172 153.034 75.868 154.447C79.0715 157.18 81.6155 160.101 83.4999 163.21C85.4786 166.225 86.9861 169.193 88.0225 172.114C88.4936 173.527 88.4465 174.705 87.8812 175.647C87.3159 176.589 86.1381 177.06 84.3479 177.06H41.9483C40.535 177.06 39.5928 177.296 39.1217 177.767C38.6505 178.238 38.415 179.18 38.415 180.594V208.86C38.415 210.273 38.1794 211.216 37.7083 211.687C37.2372 212.158 36.295 212.393 34.8817 212.393H15.0952ZM162.46 204.196C155.676 199.674 150.259 193.879 146.207 186.812C142.156 179.746 140.13 171.784 140.13 162.927C140.13 155.484 141.543 148.653 144.37 142.434C147.291 136.215 151.201 130.845 156.1 126.322C161.094 121.8 166.889 118.313 173.484 115.864C180.08 113.32 187.099 112.048 194.543 112.048C201.986 112.048 209.006 113.32 215.601 115.864C222.197 118.313 227.944 121.8 232.844 126.322C237.837 130.845 241.748 136.215 244.574 142.434C247.495 148.653 248.956 155.484 248.956 162.927C248.956 170.088 247.589 176.731 244.857 182.855C242.219 188.885 238.591 194.162 233.974 198.684C233.503 199.155 233.032 199.579 232.561 199.956C232.09 200.333 231.572 200.522 231.006 200.522C230.441 200.522 229.734 200.239 228.886 199.674L213.623 189.356C212.398 188.508 211.785 187.613 211.785 186.671C211.785 185.635 212.162 184.739 212.916 183.986C215.366 181.536 217.486 178.568 219.276 175.082C221.16 171.596 222.102 167.544 222.102 162.927C222.102 159.064 221.396 155.531 219.982 152.327C218.569 149.124 216.638 146.391 214.188 144.13C211.738 141.775 208.817 139.984 205.425 138.759C202.033 137.44 198.406 136.781 194.543 136.781C190.68 136.781 187.052 137.44 183.66 138.759C180.362 139.984 177.442 141.775 174.898 144.13C172.448 146.391 170.516 149.124 169.103 152.327C167.69 155.531 166.983 159.064 166.983 162.927C166.983 167.638 168.019 171.831 170.092 175.506C172.259 179.086 175.086 182.054 178.572 184.41L213.764 208.153C214.895 208.907 215.319 209.802 215.036 210.839C214.753 211.875 214.094 212.393 213.057 212.393H178.855C176.028 212.393 173.578 211.687 171.506 210.273L162.46 204.196ZM284.098 210.273C282.213 208.86 280.329 207.07 278.444 204.903C276.654 202.736 275.005 200.38 273.498 197.836C272.084 195.292 270.907 192.607 269.964 189.78C269.116 186.954 268.692 184.127 268.692 181.3V116.994C268.692 115.581 268.928 114.639 269.399 114.168C269.87 113.697 270.812 113.461 272.226 113.461H292.012C293.425 113.461 294.368 113.697 294.839 114.168C295.31 114.639 295.545 115.581 295.545 116.994V172.82C295.545 175.082 296.017 177.013 296.959 178.615L299.927 183.42C301.717 186.247 304.261 187.66 307.559 187.66H308.972C310.762 187.66 312.411 187.189 313.919 186.247C315.52 185.305 316.981 184.363 318.3 183.42L347.556 163.634C349.157 162.597 350.052 161.373 350.241 159.959C350.524 158.546 350.665 157.133 350.665 155.719V116.994C350.665 115.581 350.9 114.639 351.372 114.168C351.843 113.697 352.785 113.461 354.198 113.461H373.985C375.398 113.461 376.34 113.697 376.811 114.168C377.282 114.639 377.518 115.581 377.518 116.994V208.86C377.518 210.273 377.282 211.216 376.811 211.687C376.34 212.158 375.398 212.393 373.985 212.393H354.198C352.785 212.393 351.843 212.158 351.372 211.687C350.9 211.216 350.665 210.273 350.665 208.86V195.01C350.665 193.596 350.288 192.89 349.534 192.89C348.875 192.89 347.98 193.266 346.849 194.02L322.681 210.273C320.608 211.687 318.159 212.393 315.332 212.393H291.305C288.385 212.393 285.982 211.687 284.098 210.273ZM403.62 212.393C402.207 212.393 401.265 212.158 400.794 211.687C400.323 211.216 400.087 210.273 400.087 208.86V116.994C400.087 115.581 400.323 114.639 400.794 114.168C401.265 113.697 402.207 113.461 403.62 113.461H486.3C489.315 113.461 491.717 114.168 493.507 115.581C495.392 117.089 497.229 118.926 499.019 121.093C500.904 123.166 502.553 125.474 503.966 128.018C505.474 130.562 506.651 133.247 507.499 136.074C508.442 138.901 508.913 141.727 508.913 144.554V173.527C508.913 174.94 508.677 175.883 508.206 176.354C507.735 176.825 506.793 177.06 505.379 177.06H485.593C484.18 177.06 483.237 176.825 482.766 176.354C482.295 175.883 482.06 174.94 482.06 173.527V153.034C482.06 150.773 481.588 148.841 480.646 147.239L477.678 142.434C475.888 139.607 473.344 138.194 470.046 138.194H430.473C429.06 138.194 428.118 138.43 427.647 138.901C427.176 139.372 426.94 140.314 426.94 141.727V148.087C426.94 149.501 427.081 150.914 427.364 152.327C427.647 153.741 428.542 154.966 430.049 156.002L507.499 208.153C508.63 208.907 509.054 209.802 508.771 210.839C508.489 211.875 507.829 212.393 506.793 212.393H472.449C469.717 212.393 467.267 211.687 465.1 210.273L430.756 187.095C429.531 186.341 428.683 185.964 428.212 185.964C427.364 185.964 426.94 186.671 426.94 188.084V208.86C426.94 210.273 426.705 211.216 426.233 211.687C425.762 212.158 424.82 212.393 423.407 212.393H403.62Z" fill="white"/>
<path d="M192.399 132.296C210.638 132.296 225.319 146.501 225.319 163.897C225.319 181.292 210.638 195.497 192.399 195.497C174.16 195.497 159.479 181.292 159.479 163.897C159.479 146.501 174.16 132.296 192.399 132.296Z" stroke="white" stroke-width="3.13521"/>
<ellipse cx="191.876" cy="164.399" rx="14.1084" ry="13.5687" fill="white"/>
</svg>
